<svg xmlns="http://www.w3.org/2000/svg" xmlns:xlink="http://www.w3.org/1999/xlink" xmlns:lucid="lucid" width="1760" height="1360"><g transform="translate(0 0)" lucid:page-tab-id="qDJtWgJC~VwF"><path d="M0 0h1760v1360H0z" fill="#fff"/><path d="M594.1 500.73l-4.65 13.4-4.66 15.44-4.6 18-4.52 21.27-4.33 25.67-4 31.88-3.44 41.47-2.42 60.42L561 780h-2l.48-51.78 2.44-60.5 3.44-41.55 4-31.95 4.35-25.76 4.54-21.36 4.63-18.07 4.67-15.5 4.7-13.5 1.7-4.34h2.16zM750.03 381l-8.52.18-7.94.5-7.46.78-7.04 1.03-6.66 1.27-6.35 1.48-6.06 1.7-5.82 1.88-5.6 2.08-5.4 2.3-5.24 2.45-5.1 2.66-4.97 2.88-4.86 3.1-4.77 3.3-4.7 3.58-4.64 3.84-4.6 4.13-4.55 4.47-4.54 4.83-4.5 5.23-4.52 5.7-4.52 6.23-4.54 6.82-4.55 7.52-2.97 5.4h-2.3l3.54-6.4 4.6-7.6 4.57-6.9 4.58-6.3 4.57-5.75 4.58-5.3 4.6-4.9 4.6-4.52 4.66-4.2 4.7-3.9 4.76-3.6 4.84-3.37 4.94-3.13 5.04-2.9 5.17-2.7 5.32-2.5 5.48-2.32 5.67-2.1 5.9-1.92 6.14-1.7 6.42-1.52 6.75-1.28 7.12-1.05 7.54-.8 8-.5 8.57-.17zM750 380.14l-.04-1.14z"/><path d="M564.77 765.78L560 780l-4.5-14.3z"/><path d="M566.15 764.8l-5.1 15.2h-2.1l-4.82-15.32zm-6.12 11.96l3.35-10-6.5-.06z"/><use xlink:href="#a" transform="matrix(1,0,0,1,529.9350460111817,466.3548782169172) translate(0 19.555555555555557)"/><use xlink:href="#b" transform="matrix(1,0,0,1,529.9350460111817,466.3548782169172) translate(107.21604938271608 19.555555555555557)"/><path d="M940 1240c0 33.13-26.86 60-60 60s-60-26.87-60-60c0-33.14 26.86-60 60-60s60 26.86 60 60z" stroke="#000" stroke-width="2" fill="#fff"/><path d="M916 1240c0 19.88-16.12 36-36 36s-36-16.12-36-36c0-19.9 16.12-36 36-36s36 16.1 36 36z" stroke="#000" stroke-width="2"/><path d="M424 780c-13.25 0-24 10.75-24 24v72c0 13.25 10.75 24 24 24h272c13.25 0 24-10.75 24-24v-72c0-13.25-10.75-24-24-24z" stroke="#000" stroke-width="2" fill="#fff"/><use xlink:href="#c" transform="matrix(1,0,0,1,408,788) translate(10.703703703703695 57.333333333333336)"/><path d="M1104 540c-13.25 0-24 10.75-24 24v72c0 13.25 10.75 24 24 24h272c13.25 0 24-10.75 24-24v-72c0-13.25-10.75-24-24-24z" stroke="#000" stroke-width="2" fill="#fff"/><use xlink:href="#d" transform="matrix(1,0,0,1,1088,548) translate(30.222222222222214 57.333333333333336)"/><path d="M1214.15 457.8l3.33 4.58 3.07 4.63 2.84 4.7 2.6 4.73 2.4 4.8 2.17 4.9 1.98 5 1.77 5.12 1.58 5.23 1.38 5.38 1.18 5.54.97 5.73.75 5.94.52 6.17.27 6.43.03 3.32h-2l-.03-3.28-.27-6.36-.5-6.08-.75-5.86-.95-5.64-1.16-5.46-1.36-5.3-1.56-5.16-1.75-5.02-1.95-4.92-2.14-4.83-2.36-4.75-2.56-4.66-2.8-4.62-3.02-4.56-3.3-4.52-3.54-4.48-.44-.5h2.6zm-187.7-78.46l16.16 1.02 15.64 1.64 14.92 2.2 14.08 2.7 13.2 3.07 12.25 3.42 11.33 3.68 10.46 3.88 9.6 4.05 8.86 4.17 8.12 4.24 7.47 4.32 6.87 4.36 3.74 2.6h-3.5l-1.35-.94-6.78-4.3-7.4-4.27-8.05-4.2-8.77-4.14-9.55-4-10.38-3.86-11.26-3.66-12.17-3.4-13.1-3.06-14-2.67-14.84-2.2-15.56-1.62-16.07-1-16.4-.35.05-2z"/><path d="M1010.02 379l-.02 1.16V379zM1240 540l-5.34-14.02 9.26-.46z"/><path d="M1241.04 540h-2.1l-5.7-14.95 12-.6zm-4.95-13.1l3.74 9.87 2.76-10.18z"/><use xlink:href="#a" transform="matrix(1,0,0,1,1098.249603811514,424.6756337181412) translate(0 19.555555555555557)"/><use xlink:href="#e" transform="matrix(1,0,0,1,1098.249603811514,424.6756337181412) translate(107.21604938271608 19.555555555555557)"/><path d="M984 1000c-13.25 0-24 10.74-24 24v72c0 13.25 10.75 24 24 24h272c13.25 0 24-10.75 24-24v-72c0-13.26-10.75-24-24-24z" stroke="#000" stroke-width="2" fill="#fff"/><use xlink:href="#f" transform="matrix(1,0,0,1,968,1007.9944798764022) translate(29.18518518518519 57.333333333333336)"/><path d="M1156.6 866.68l-6.14 10.62-4.95 9.45-4.18 8.9-3.65 8.68-3.22 8.66-2.86 8.8-2.54 9.07-2.23 9.5-1.92 10.07-1.58 10.78-1.22 11.68-.8 12.83-.3 14.28-2-.03.3-14.32.8-12.9 1.24-11.78 1.6-10.87 1.93-10.14 2.25-9.58 2.56-9.17 2.88-8.87 3.25-8.74 3.7-8.76 4.22-8.98 4.98-9.52 6.2-10.73 14.13-20.8h2.42zm84.4-206.65l-.3 14.32-.8 12.9-1.24 11.78-1.6 10.86-1.93 10.13-2.25 9.6-2.56 9.15-2.88 8.88-3.25 8.74-3.7 8.76-4.22 8.97-4.98 9.53-6.2 10.7-8.76 13.78-4.98 7.32h-2.4l5.7-8.42 8.73-13.7 6.14-10.65 4.95-9.46 4.18-8.9 3.65-8.67 3.22-8.66 2.86-8.8 2.54-9.08 2.23-9.5 1.92-10.06 1.58-10.78 1.22-11.7.8-12.82.3-14.28z"/><path d="M1241 660.03l-1.23-.03h1.23zM1124.96 985.84L1120 1000l-4.3-14.37z"/><path d="M1126.35 984.87l-5.3 15.12h-2.1l-4.62-15.4zm-6.28 11.9l3.5-9.96-6.53-.14z"/><use xlink:href="#a" transform="matrix(1,0,0,1,958.5355979012099,815.4645893813365) translate(0 19.555555555555557)"/><use xlink:href="#g" transform="matrix(1,0,0,1,958.5355979012099,815.4645893813365) translate(107.21604938271608 19.555555555555557)"/><use xlink:href="#h" transform="matrix(1,0,0,1,958.5355979012099,815.4645893813365) translate(202.07407407407413 19.555555555555557)"/><use xlink:href="#i" transform="matrix(1,0,0,1,958.5355979012099,815.4645893813365) translate(249.60493827160502 19.555555555555557)"/><use xlink:href="#j" transform="matrix(1,0,0,1,958.5355979012099,815.4645893813365) translate(305.14814814814827 19.555555555555557)"/><use xlink:href="#k" transform="matrix(1,0,0,1,958.5355979012099,815.4645893813365) translate(355.12345679012356 19.555555555555557)"/><path d="M560 900l.43 20.7 1.3 20.5 2.1 20.14 2.9 19.6 3.6 18.9 4.25 18.12 4.82 17.27 5.3 16.35 5.74 15.42 6.1 14.5 6.37 13.56 6.64 12.67 6.82 11.82 6.98 11 7.12 10.26 7.23 9.53 7.3 8.85 7.4 8.22 7.48 7.64 7.54 7.08 7.6 6.57 7.7 6.08 7.75 5.63 7.83 5.22 7.93 4.8 8.03 4.42 8.15 4.04 8.3 3.7 8.4 3.32 8.6 3 8.78 2.64 9 2.3 9.22 1.97 9.5 1.62 9.78 1.23 10.12.85 10.5.44 5.4.05" stroke="#000" stroke-width="2" fill="none"/><path d="M559 900.03V900h1.25zM820 1240l-14.4 4.2.28-9.27z"/><path d="M820.04 1238.95L820 1240l.04 1.03-15.48 4.5.36-12zm-13.4 3.9l10.13-2.95-9.93-3.57z"/><path d="M1120 1120l-.1 4.9-.3 4.7-.47 4.48-.63 4.32-.8 4.15-.94 4.02-1.1 3.9-1.22 3.8-1.38 3.7-1.52 3.62-1.67 3.53-1.82 3.5-2 3.43-2.14 3.4-2.33 3.35-2.52 3.34-2.74 3.3-2.95 3.3-3.2 3.27-3.5 3.28-3.77 3.26-4.1 3.26-4.48 3.25-4.88 3.24-5.33 3.2-5.84 3.2-6.38 3.18-7 3.1-7.68 3.05-8.4 2.93-9.23 2.78-10.07 2.58-10.94 2.32-11.8 2-12.63 1.6-13.3 1.1-13.82.58-7 .07" stroke="#000" stroke-width="2" fill="none"/><path d="M1121 1120.06l-1.04-.07h1.04zM954.4 1244.24L940 1240l14.13-5.03z"/><path d="M955.42 1245.6l-15.46-4.58.04-1.03-.04-1.05 15.14-5.38zm-12.2-5.7l10.13 3-.18-6.52zM911.24 706.74l-40.82 53.07-11.66 13.55-9.37 10-8.2 8-7.46 6.74-6.97 5.76-6.64 5.05-6.4 4.46-6.26 3.97-6.15 3.55-6.1 3.2-6.08 2.86-6.12 2.57-6.2 2.3-6.28 2.06-6.44 1.8-6.62 1.54-6.84 1.3-7.1 1.06-7.44.78-7.82.5-8.25.16-.05-2 8.2-.17 7.75-.5 7.35-.76 7.03-1.03 6.77-1.3 6.53-1.53 6.36-1.76 6.2-2.02 6.12-2.27 6.04-2.54 6.02-2.82 6.02-3.15 6.07-3.5 6.18-3.93 6.35-4.4 6.57-5 6.92-5.73 7.4-6.66 8.12-7.96 9.3-9.93 11.6-13.45 40.8-53.04.38-.48h2.55zM1080.02 601l-8.2.17-7.75.5-7.35.76-7.03 1.03-6.77 1.3-6.53 1.53-6.36 1.76-6.2 2.02-6.12 2.27-6.04 2.54-6.02 2.82-6.02 3.15-6.07 3.5-6.18 3.93-6.35 4.4-6.57 5-6.92 5.73-7.4 6.66-8.12 7.96-9.3 9.93-6.64 7.7h-2.64l7.78-9.05 9.37-10 8.2-8 7.46-6.74 6.97-5.76 6.64-5.05 6.4-4.46 6.26-3.97 6.15-3.55 6.1-3.2 6.08-2.86 6.12-2.57 6.2-2.3 6.28-2.06 6.44-1.8 6.62-1.54 6.84-1.3 7.1-1.06 7.44-.78 7.82-.5 8.25-.16zM1080 600.14l-.05-1.14z"/><path d="M734.44 844.07L720 840l14.07-5.2z"/><path d="M735.5 845.4l-15.5-4.36v-2.1l15.02-5.55zm-12.27-5.53l10.15 2.86-.25-6.5z"/><use xlink:href="#a" transform="matrix(1,0,0,1,851.5945534336328,675.6885726261376) translate(0 19.555555555555557)"/><use xlink:href="#b" transform="matrix(1,0,0,1,851.5945534336328,675.6885726261376) translate(107.21604938271608 19.555555555555557)"/><path d="M920 60c0 22.1-17.9 40-40 40s-40-17.9-40-40 17.9-40 40-40 40 17.9 40 40z" stroke="#000" stroke-width="2"/><path d="M881 320h-2V201.1h2zm0-148.24h-2V100h2zM881 100h-1l1-.04zm-2 0h1z"/><path d="M880 320l-4.64-14.27h9.28z"/><path d="M881.05 320h-2.1L874 304.73h12zm-4.3-13.27l3.25 10.03 3.26-10.03z"/><use xlink:href="#l" transform="matrix(1,0,0,1,585.5462962962963,171.7619047619048) translate(0 19.555555555555557)"/><use xlink:href="#m" transform="matrix(1,0,0,1,585.5462962962963,171.7619047619048) translate(47.530864197530875 19.555555555555557)"/><use xlink:href="#n" transform="matrix(1,0,0,1,585.5462962962963,171.7619047619048) translate(103.07407407407409 19.555555555555557)"/><use xlink:href="#o" transform="matrix(1,0,0,1,585.5462962962963,171.7619047619048) translate(198.00000000000003 19.555555555555557)"/><use xlink:href="#h" transform="matrix(1,0,0,1,585.5462962962963,171.7619047619048) translate(272.6913580246914 19.555555555555557)"/><use xlink:href="#p" transform="matrix(1,0,0,1,585.5462962962963,171.7619047619048) translate(320.2222222222223 19.555555555555557)"/><use xlink:href="#n" transform="matrix(1,0,0,1,585.5462962962963,171.7619047619048) translate(412.567901234568 19.555555555555557)"/><use xlink:href="#q" transform="matrix(1,0,0,1,585.5462962962963,171.7619047619048) translate(507.49382716049394 19.555555555555557)"/><path d="M774 320c-13.25 0-24 10.75-24 24v72c0 13.25 10.75 24 24 24h212c13.25 0 24-10.75 24-24v-72c0-13.25-10.75-24-24-24z" stroke="#000" stroke-width="2" fill="#fff"/><g><use xlink:href="#r" transform="matrix(1,0,0,1,758,328) translate(25.81481481481481 57.333333333333336)"/></g><path d="M1391.8 655.24l1.74 1.87 1.75 1.7 1.72 1.5 1.73 1.4 1.72 1.22 1.74 1.12 1.75 1 1.75.9 1.77.8 1.8.72 1.8.62 1.86.53 1.9.45 1.93.35 1.98.27 2.05.17 2.1.07 2.17-.02 2.26-.14 2.34-.27 2.43-.4 2.53-.53 2.63-.7 2.74-.87 2.85-1.07 2.96-1.27 3.07-1.5 3.15-1.73 3.23-2 3.3-2.26 3.3-2.52 3.32-2.78 3.25-3.03 3.17-3.23 3.02-3.42 2.86-3.57 2.65-3.65 2.42-3.7 2.17-3.72 1.9-3.67 1.68-3.6 1.42-3.54 1.2-3.44.96-3.32.77-3.2.58-3.1.4-2.96.27-2.86.1-2.76V593l-.12-2.65-.27-2.7-.4-2.76-.54-2.82-.7-2.87-.9-2.92-1.04-2.97-1.24-3.02-1.44-3.06-1.64-3.1-1.85-3.1-2.05-3.1-2.26-3.08-2.45-3-2.64-2.94-2.8-2.8-2.9-2.68-3.03-2.5-3.1-2.33-3.12-2.12-3.12-1.9-3.1-1.7-3.08-1.46-3-1.27-2.93-1.07-2.85-.88-2.75-.7-2.66-.56-2.55-.4-2.48-.26-2.4-.13-2.3-.02-2.2.1-2.16.2-2.08.28-2.02.4-1.97.47-1.9.56-1.88.65-1.83.74-1.8.83-1.76.92-1.73 1.02-1.7 1.1-1.7 1.24-1.68 1.35-1.67 1.47-1.65 1.62-1.64 1.77-1.65 1.96-1.46 1.9" stroke="#000" stroke-width="2" fill="none"/><path d="M1392.42 654.47l-1.26 1.55-.9-.74 1.5-1.35zM1405.1 537.83l-13.3 6.9 6.7-13.4z"/><path d="M1406.8 538.08l-15.1 7.83-1.18-.85 7.7-15.4zm-12.74 4.35l9.36-4.85-4.64-4.58z"/><g><use xlink:href="#a" transform="matrix(1,0,0,1,1267.689082208216,672.6222534544346) translate(0 19.555555555555557)"/><use xlink:href="#g" transform="matrix(1,0,0,1,1267.689082208216,672.6222534544346) translate(107.21604938271608 19.555555555555557)"/><use xlink:href="#h" transform="matrix(1,0,0,1,1267.689082208216,672.6222534544346) translate(202.07407407407413 19.555555555555557)"/><use xlink:href="#i" transform="matrix(1,0,0,1,1267.689082208216,672.6222534544346) translate(249.60493827160502 19.555555555555557)"/><use xlink:href="#j" transform="matrix(1,0,0,1,1267.689082208216,672.6222534544346) translate(305.14814814814827 19.555555555555557)"/><use xlink:href="#s" transform="matrix(1,0,0,1,1267.689082208216,672.6222534544346) translate(355.12345679012356 19.555555555555557)"/><use xlink:href="#k" transform="matrix(1,0,0,1,1267.689082208216,672.6222534544346) translate(395.8641975308643 19.555555555555557)"/></g><defs><path d="M114-163C36-179 61-72 57 0H25l-1-190h30c1 12-1 29 2 39 6-27 23-49 58-41v29" id="t"/><path d="M100-194c63 0 86 42 84 106H49c0 40 14 67 53 68 26 1 43-12 49-29l28 8c-11 28-37 45-77 45C44 4 14-33 15-96c1-61 26-98 85-98zm52 81c6-60-76-77-97-28-3 7-6 17-6 28h103" id="u"/><path d="M135-143c-3-34-86-38-87 0 15 53 115 12 119 90S17 21 10-45l28-5c4 36 97 45 98 0-10-56-113-15-118-90-4-57 82-63 122-42 12 7 21 19 24 35" id="v"/><path d="M115-194c55 1 70 41 70 98S169 2 115 4C84 4 66-9 55-30l1 105H24l-1-265h31l2 30c10-21 28-34 59-34zm-8 174c40 0 45-34 45-75s-6-73-45-74c-42 0-51 32-51 76 0 43 10 73 51 73" id="w"/><path d="M100-194c62-1 85 37 85 99 1 63-27 99-86 99S16-35 15-95c0-66 28-99 85-99zM99-20c44 1 53-31 53-75 0-43-8-75-51-75s-53 32-53 75 10 74 51 75" id="x"/><path d="M117-194c89-4 53 116 60 194h-32v-121c0-31-8-49-39-48C34-167 62-67 57 0H25l-1-190h30c1 10-1 24 2 32 11-22 29-35 61-36" id="y"/><g id="a"><use transform="matrix(0.06790123456790124,0,0,0.06790123456790124,0,0)" xlink:href="#t"/><use transform="matrix(0.06790123456790124,0,0,0.06790123456790124,8.080246913580249,0)" xlink:href="#u"/><use transform="matrix(0.06790123456790124,0,0,0.06790123456790124,21.660493827160497,0)" xlink:href="#v"/><use transform="matrix(0.06790123456790124,0,0,0.06790123456790124,33.88271604938272,0)" xlink:href="#w"/><use transform="matrix(0.06790123456790124,0,0,0.06790123456790124,47.46296296296297,0)" xlink:href="#x"/><use transform="matrix(0.06790123456790124,0,0,0.06790123456790124,61.043209876543216,0)" xlink:href="#y"/><use transform="matrix(0.06790123456790124,0,0,0.06790123456790124,74.62345679012347,0)" xlink:href="#v"/><use transform="matrix(0.06790123456790124,0,0,0.06790123456790124,86.8456790123457,0)" xlink:href="#u"/></g><path d="M140-251c81 0 123 46 123 126C263-46 219 4 140 4 59 4 17-45 17-125s42-126 123-126zm0 227c63 0 89-41 89-101s-29-99-89-99c-61 0-89 39-89 99S79-25 140-24" id="z"/><path d="M194 0L95-120 63-95V0H30v-248h33v124l119-124h40L117-140 236 0h-42" id="A"/><g id="b"><use transform="matrix(0.06790123456790124,0,0,0.06790123456790124,0,0)" xlink:href="#z"/><use transform="matrix(0.06790123456790124,0,0,0.06790123456790124,19.01234567901235,0)" xlink:href="#A"/></g><path d="M212-179c-10-28-35-45-73-45-59 0-87 40-87 99 0 60 29 101 89 101 43 0 62-24 78-52l27 14C228-24 195 4 139 4 59 4 22-46 18-125c-6-104 99-153 187-111 19 9 31 26 39 46" id="B"/><path d="M205 0l-28-72H64L36 0H1l101-248h38L239 0h-34zm-38-99l-47-123c-12 45-31 82-46 123h93" id="C"/><path d="M30 0v-248h33v221h125V0H30" id="D"/><path d="M160-131c35 5 61 23 61 61C221 17 115-2 30 0v-248c76 3 177-17 177 60 0 33-19 50-47 57zm-97-11c50-1 110 9 110-42 0-47-63-36-110-37v79zm0 115c55-2 124 14 124-45 0-56-70-42-124-44v89" id="E"/><path d="M-5 72V49h209v23H-5" id="F"/><path d="M185-189c-5-48-123-54-124 2 14 75 158 14 163 119 3 78-121 87-175 55-17-10-28-26-33-46l33-7c5 56 141 63 141-1 0-78-155-14-162-118-5-82 145-84 179-34 5 7 8 16 11 25" id="G"/><path d="M232-93c-1 65-40 97-104 97C67 4 28-28 28-90v-158h33c8 89-33 224 67 224 102 0 64-133 71-224h33v155" id="H"/><path d="M30 0v-248h187v28H63v79h144v27H63v87h162V0H30" id="I"/><g id="c"><use transform="matrix(0.07407407407407408,0,0,0.07407407407407408,0,0)" xlink:href="#B"/><use transform="matrix(0.07407407407407408,0,0,0.07407407407407408,19.185185185185187,0)" xlink:href="#C"/><use transform="matrix(0.07407407407407408,0,0,0.07407407407407408,36.96296296296296,0)" xlink:href="#D"/><use transform="matrix(0.07407407407407408,0,0,0.07407407407407408,51.77777777777778,0)" xlink:href="#D"/><use transform="matrix(0.07407407407407408,0,0,0.07407407407407408,66.5925925925926,0)" xlink:href="#E"/><use transform="matrix(0.07407407407407408,0,0,0.07407407407407408,84.37037037037038,0)" xlink:href="#C"/><use transform="matrix(0.07407407407407408,0,0,0.07407407407407408,102.14814814814814,0)" xlink:href="#B"/><use transform="matrix(0.07407407407407408,0,0,0.07407407407407408,121.33333333333334,0)" xlink:href="#A"/><use transform="matrix(0.07407407407407408,0,0,0.07407407407407408,139.11111111111111,0)" xlink:href="#F"/><use transform="matrix(0.07407407407407408,0,0,0.07407407407407408,153.92592592592592,0)" xlink:href="#G"/><use transform="matrix(0.07407407407407408,0,0,0.07407407407407408,171.7037037037037,0)" xlink:href="#H"/><use transform="matrix(0.07407407407407408,0,0,0.07407407407407408,190.88888888888889,0)" xlink:href="#B"/><use transform="matrix(0.07407407407407408,0,0,0.07407407407407408,210.07407407407408,0)" xlink:href="#B"/><use transform="matrix(0.07407407407407408,0,0,0.07407407407407408,229.25925925925927,0)" xlink:href="#I"/><use transform="matrix(0.07407407407407408,0,0,0.07407407407407408,247.03703703703704,0)" xlink:href="#G"/><use transform="matrix(0.07407407407407408,0,0,0.07407407407407408,264.81481481481484,0)" xlink:href="#G"/></g><path d="M233-177c-1 41-23 64-60 70L243 0h-38l-65-103H63V0H30v-248c88 3 205-21 203 71zM63-129c60-2 137 13 137-47 0-61-80-42-137-45v92" id="J"/><path d="M127-220V0H93v-220H8v-28h204v28h-85" id="K"/><path d="M137-103V0h-34v-103L8-248h37l75 118 75-118h37" id="L"/><g id="d"><use transform="matrix(0.07407407407407408,0,0,0.07407407407407408,0,0)" xlink:href="#B"/><use transform="matrix(0.07407407407407408,0,0,0.07407407407407408,19.185185185185187,0)" xlink:href="#C"/><use transform="matrix(0.07407407407407408,0,0,0.07407407407407408,36.96296296296296,0)" xlink:href="#D"/><use transform="matrix(0.07407407407407408,0,0,0.07407407407407408,51.77777777777778,0)" xlink:href="#D"/><use transform="matrix(0.07407407407407408,0,0,0.07407407407407408,66.5925925925926,0)" xlink:href="#E"/><use transform="matrix(0.07407407407407408,0,0,0.07407407407407408,84.37037037037038,0)" xlink:href="#C"/><use transform="matrix(0.07407407407407408,0,0,0.07407407407407408,102.14814814814814,0)" xlink:href="#B"/><use transform="matrix(0.07407407407407408,0,0,0.07407407407407408,121.33333333333334,0)" xlink:href="#A"/><use transform="matrix(0.07407407407407408,0,0,0.07407407407407408,139.11111111111111,0)" xlink:href="#F"/><use transform="matrix(0.07407407407407408,0,0,0.07407407407407408,153.92592592592592,0)" xlink:href="#J"/><use transform="matrix(0.07407407407407408,0,0,0.07407407407407408,173.11111111111111,0)" xlink:href="#I"/><use transform="matrix(0.07407407407407408,0,0,0.07407407407407408,190.88888888888889,0)" xlink:href="#K"/><use transform="matrix(0.07407407407407408,0,0,0.07407407407407408,207.11111111111111,0)" xlink:href="#J"/><use transform="matrix(0.07407407407407408,0,0,0.07407407407407408,225.7777777777778,0)" xlink:href="#L"/></g><g id="e"><use transform="matrix(0.06790123456790124,0,0,0.06790123456790124,0,0)" xlink:href="#I"/><use transform="matrix(0.06790123456790124,0,0,0.06790123456790124,16.296296296296298,0)" xlink:href="#J"/><use transform="matrix(0.06790123456790124,0,0,0.06790123456790124,33.88271604938272,0)" xlink:href="#J"/><use transform="matrix(0.06790123456790124,0,0,0.06790123456790124,51.46913580246915,0)" xlink:href="#z"/><use transform="matrix(0.06790123456790124,0,0,0.06790123456790124,70.4814814814815,0)" xlink:href="#J"/></g><path d="M63-220v92h138v28H63V0H30v-248h175v28H63" id="M"/><path d="M33 0v-248h34V0H33" id="N"/><path d="M30-248c118-7 216 8 213 122C240-48 200 0 122 0H30v-248zM63-27c89 8 146-16 146-99s-60-101-146-95v194" id="O"/><g id="f"><use transform="matrix(0.07407407407407408,0,0,0.07407407407407408,0,0)" xlink:href="#B"/><use transform="matrix(0.07407407407407408,0,0,0.07407407407407408,19.185185185185187,0)" xlink:href="#C"/><use transform="matrix(0.07407407407407408,0,0,0.07407407407407408,36.96296296296296,0)" xlink:href="#D"/><use transform="matrix(0.07407407407407408,0,0,0.07407407407407408,51.77777777777778,0)" xlink:href="#D"/><use transform="matrix(0.07407407407407408,0,0,0.07407407407407408,66.5925925925926,0)" xlink:href="#E"/><use transform="matrix(0.07407407407407408,0,0,0.07407407407407408,84.37037037037038,0)" xlink:href="#C"/><use transform="matrix(0.07407407407407408,0,0,0.07407407407407408,102.14814814814814,0)" xlink:href="#B"/><use transform="matrix(0.07407407407407408,0,0,0.07407407407407408,121.33333333333334,0)" xlink:href="#A"/><use transform="matrix(0.07407407407407408,0,0,0.07407407407407408,139.11111111111111,0)" xlink:href="#F"/><use transform="matrix(0.07407407407407408,0,0,0.07407407407407408,153.92592592592592,0)" xlink:href="#M"/><use transform="matrix(0.07407407407407408,0,0,0.07407407407407408,168.66666666666666,0)" xlink:href="#C"/><use transform="matrix(0.07407407407407408,0,0,0.07407407407407408,186.44444444444443,0)" xlink:href="#N"/><use transform="matrix(0.07407407407407408,0,0,0.07407407407407408,193.85185185185185,0)" xlink:href="#D"/><use transform="matrix(0.07407407407407408,0,0,0.07407407407407408,208.66666666666666,0)" xlink:href="#I"/><use transform="matrix(0.07407407407407408,0,0,0.07407407407407408,226.44444444444443,0)" xlink:href="#O"/></g><g id="g"><use transform="matrix(0.06790123456790124,0,0,0.06790123456790124,0,0)" xlink:href="#I"/><use transform="matrix(0.06790123456790124,0,0,0.06790123456790124,16.296296296296298,0)" xlink:href="#J"/><use transform="matrix(0.06790123456790124,0,0,0.06790123456790124,33.88271604938272,0)" xlink:href="#J"/><use transform="matrix(0.06790123456790124,0,0,0.06790123456790124,51.46913580246915,0)" xlink:href="#z"/><use transform="matrix(0.06790123456790124,0,0,0.06790123456790124,70.4814814814815,0)" xlink:href="#J"/></g><path d="M141-36C126-15 110 5 73 4 37 3 15-17 15-53c-1-64 63-63 125-63 3-35-9-54-41-54-24 1-41 7-42 31l-33-3c5-37 33-52 76-52 45 0 72 20 72 64v82c-1 20 7 32 28 27v20c-31 9-61-2-59-35zM48-53c0 20 12 33 32 33 41-3 63-29 60-74-43 2-92-5-92 41" id="P"/><path d="M85-194c31 0 48 13 60 33l-1-100h32l1 261h-30c-2-10 0-23-3-31C134-8 116 4 85 4 32 4 16-35 15-94c0-66 23-100 70-100zm9 24c-40 0-46 34-46 75 0 40 6 74 45 74 42 0 51-32 51-76 0-42-9-74-50-73" id="Q"/><g id="h"><use transform="matrix(0.06790123456790124,0,0,0.06790123456790124,0,0)" xlink:href="#P"/><use transform="matrix(0.06790123456790124,0,0,0.06790123456790124,13.580246913580249,0)" xlink:href="#y"/><use transform="matrix(0.06790123456790124,0,0,0.06790123456790124,27.160493827160497,0)" xlink:href="#Q"/></g><path d="M59-47c-2 24 18 29 38 22v24C64 9 27 4 27-40v-127H5v-23h24l9-43h21v43h35v23H59v120" id="R"/><path d="M179-190L93 31C79 59 56 82 12 73V49c39 6 53-20 64-50L1-190h34L92-34l54-156h33" id="S"/><g id="i"><use transform="matrix(0.06790123456790124,0,0,0.06790123456790124,0,0)" xlink:href="#t"/><use transform="matrix(0.06790123456790124,0,0,0.06790123456790124,8.080246913580249,0)" xlink:href="#u"/><use transform="matrix(0.06790123456790124,0,0,0.06790123456790124,21.660493827160497,0)" xlink:href="#R"/><use transform="matrix(0.06790123456790124,0,0,0.06790123456790124,28.45061728395062,0)" xlink:href="#t"/><use transform="matrix(0.06790123456790124,0,0,0.06790123456790124,36.53086419753087,0)" xlink:href="#S"/></g><path d="M24 0v-261h32V0H24" id="T"/><path d="M24-231v-30h32v30H24zM24 0v-190h32V0H24" id="U"/><path d="M210-169c-67 3-38 105-44 169h-31v-121c0-29-5-50-35-48C34-165 62-65 56 0H25l-1-190h30c1 10-1 24 2 32 10-44 99-50 107 0 11-21 27-35 58-36 85-2 47 119 55 194h-31v-121c0-29-5-49-35-48" id="V"/><g id="j"><use transform="matrix(0.06790123456790124,0,0,0.06790123456790124,0,0)" xlink:href="#T"/><use transform="matrix(0.06790123456790124,0,0,0.06790123456790124,5.364197530864199,0)" xlink:href="#U"/><use transform="matrix(0.06790123456790124,0,0,0.06790123456790124,10.728395061728397,0)" xlink:href="#V"/><use transform="matrix(0.06790123456790124,0,0,0.06790123456790124,31.030864197530867,0)" xlink:href="#U"/><use transform="matrix(0.06790123456790124,0,0,0.06790123456790124,36.39506172839507,0)" xlink:href="#R"/></g><path d="M96-169c-40 0-48 33-48 73s9 75 48 75c24 0 41-14 43-38l32 2c-6 37-31 61-74 61-59 0-76-41-82-99-10-93 101-131 147-64 4 7 5 14 7 22l-32 3c-4-21-16-35-41-35" id="W"/><path d="M106-169C34-169 62-67 57 0H25v-261h32l-1 103c12-21 28-36 61-36 89 0 53 116 60 194h-32v-121c2-32-8-49-39-48" id="X"/><g id="k"><use transform="matrix(0.06790123456790124,0,0,0.06790123456790124,0,0)" xlink:href="#t"/><use transform="matrix(0.06790123456790124,0,0,0.06790123456790124,8.080246913580249,0)" xlink:href="#u"/><use transform="matrix(0.06790123456790124,0,0,0.06790123456790124,21.660493827160497,0)" xlink:href="#P"/><use transform="matrix(0.06790123456790124,0,0,0.06790123456790124,35.24074074074075,0)" xlink:href="#W"/><use transform="matrix(0.06790123456790124,0,0,0.06790123456790124,47.46296296296297,0)" xlink:href="#X"/><use transform="matrix(0.06790123456790124,0,0,0.06790123456790124,61.043209876543216,0)" xlink:href="#u"/><use transform="matrix(0.06790123456790124,0,0,0.06790123456790124,74.62345679012347,0)" xlink:href="#Q"/></g><g id="l"><use transform="matrix(0.06790123456790124,0,0,0.06790123456790124,0,0)" xlink:href="#w"/><use transform="matrix(0.06790123456790124,0,0,0.06790123456790124,13.580246913580249,0)" xlink:href="#x"/><use transform="matrix(0.06790123456790124,0,0,0.06790123456790124,27.160493827160497,0)" xlink:href="#w"/></g><path d="M101-234c-31-9-42 10-38 44h38v23H63V0H32v-167H5v-23h27c-7-52 17-82 69-68v24" id="Y"/><g id="m"><use transform="matrix(0.06790123456790124,0,0,0.06790123456790124,0,0)" xlink:href="#Y"/><use transform="matrix(0.06790123456790124,0,0,0.06790123456790124,6.790123456790124,0)" xlink:href="#t"/><use transform="matrix(0.06790123456790124,0,0,0.06790123456790124,14.870370370370374,0)" xlink:href="#x"/><use transform="matrix(0.06790123456790124,0,0,0.06790123456790124,28.45061728395062,0)" xlink:href="#V"/></g><path d="M115-194c53 0 69 39 70 98 0 66-23 100-70 100C84 3 66-7 56-30L54 0H23l1-261h32v101c10-23 28-34 59-34zm-8 174c40 0 45-34 45-75 0-40-5-75-45-74-42 0-51 32-51 76 0 43 10 73 51 73" id="Z"/><path d="M143 0L79-87 56-68V0H24v-261h32v163l83-92h37l-77 82L181 0h-38" id="aa"/><g id="n"><use transform="matrix(0.06790123456790124,0,0,0.06790123456790124,0,0)" xlink:href="#W"/><use transform="matrix(0.06790123456790124,0,0,0.06790123456790124,12.222222222222223,0)" xlink:href="#P"/><use transform="matrix(0.06790123456790124,0,0,0.06790123456790124,25.802469135802472,0)" xlink:href="#T"/><use transform="matrix(0.06790123456790124,0,0,0.06790123456790124,31.16666666666667,0)" xlink:href="#T"/><use transform="matrix(0.06790123456790124,0,0,0.06790123456790124,36.53086419753087,0)" xlink:href="#Z"/><use transform="matrix(0.06790123456790124,0,0,0.06790123456790124,50.111111111111114,0)" xlink:href="#P"/><use transform="matrix(0.06790123456790124,0,0,0.06790123456790124,63.69135802469136,0)" xlink:href="#W"/><use transform="matrix(0.06790123456790124,0,0,0.06790123456790124,75.91358024691358,0)" xlink:href="#aa"/></g><path d="M145-31C134-9 116 4 85 4 32 4 16-35 15-94c0-59 17-99 70-100 32-1 48 14 60 33 0-11-1-24 2-32h30l-1 268h-32zM93-21c41 0 51-33 51-76s-8-73-50-73c-40 0-46 35-46 75s5 74 45 74" id="ab"/><path d="M84 4C-5 8 30-112 23-190h32v120c0 31 7 50 39 49 72-2 45-101 50-169h31l1 190h-30c-1-10 1-25-2-33-11 22-28 36-60 37" id="ac"/><g id="o"><use transform="matrix(0.06790123456790124,0,0,0.06790123456790124,0,0)" xlink:href="#ab"/><use transform="matrix(0.06790123456790124,0,0,0.06790123456790124,13.580246913580249,0)" xlink:href="#ac"/><use transform="matrix(0.06790123456790124,0,0,0.06790123456790124,27.160493827160497,0)" xlink:href="#u"/><use transform="matrix(0.06790123456790124,0,0,0.06790123456790124,40.74074074074075,0)" xlink:href="#ac"/><use transform="matrix(0.06790123456790124,0,0,0.06790123456790124,54.320987654320994,0)" xlink:href="#u"/></g><path d="M141 0L90-78 38 0H4l68-98-65-92h35l48 74 47-74h35l-64 92 68 98h-35" id="ad"/><g id="p"><use transform="matrix(0.06790123456790124,0,0,0.06790123456790124,0,0)" xlink:href="#u"/><use transform="matrix(0.06790123456790124,0,0,0.06790123456790124,13.580246913580249,0)" xlink:href="#ad"/><use transform="matrix(0.06790123456790124,0,0,0.06790123456790124,25.802469135802472,0)" xlink:href="#u"/><use transform="matrix(0.06790123456790124,0,0,0.06790123456790124,39.38271604938272,0)" xlink:href="#W"/><use transform="matrix(0.06790123456790124,0,0,0.06790123456790124,51.604938271604944,0)" xlink:href="#ac"/><use transform="matrix(0.06790123456790124,0,0,0.06790123456790124,65.18518518518519,0)" xlink:href="#R"/><use transform="matrix(0.06790123456790124,0,0,0.06790123456790124,71.97530864197532,0)" xlink:href="#u"/></g><g id="q"><use transform="matrix(0.06790123456790124,0,0,0.06790123456790124,0,0)" xlink:href="#t"/><use transform="matrix(0.06790123456790124,0,0,0.06790123456790124,8.080246913580249,0)" xlink:href="#u"/><use transform="matrix(0.06790123456790124,0,0,0.06790123456790124,21.660493827160497,0)" xlink:href="#ab"/><use transform="matrix(0.06790123456790124,0,0,0.06790123456790124,35.24074074074075,0)" xlink:href="#ac"/><use transform="matrix(0.06790123456790124,0,0,0.06790123456790124,48.820987654320994,0)" xlink:href="#u"/><use transform="matrix(0.06790123456790124,0,0,0.06790123456790124,62.40123456790124,0)" xlink:href="#v"/><use transform="matrix(0.06790123456790124,0,0,0.06790123456790124,74.62345679012347,0)" xlink:href="#R"/></g><path d="M190 0L58-211 59 0H30v-248h39L202-35l-2-213h31V0h-41" id="ae"/><path d="M30-248c87 1 191-15 191 75 0 78-77 80-158 76V0H30v-248zm33 125c57 0 124 11 124-50 0-59-68-47-124-48v98" id="af"/><path d="M143 4C61 4 22-44 18-125c-5-107 100-154 193-111 17 8 29 25 37 43l-32 9c-13-25-37-40-76-40-61 0-88 39-88 99 0 61 29 100 91 101 35 0 62-11 79-27v-45h-74v-28h105v86C228-13 192 4 143 4" id="ag"/><g id="r"><use transform="matrix(0.07407407407407408,0,0,0.07407407407407408,0,0)" xlink:href="#N"/><use transform="matrix(0.07407407407407408,0,0,0.07407407407407408,7.407407407407408,0)" xlink:href="#ae"/><use transform="matrix(0.07407407407407408,0,0,0.07407407407407408,26.592592592592595,0)" xlink:href="#F"/><use transform="matrix(0.07407407407407408,0,0,0.07407407407407408,41.40740740740741,0)" xlink:href="#af"/><use transform="matrix(0.07407407407407408,0,0,0.07407407407407408,59.18518518518519,0)" xlink:href="#J"/><use transform="matrix(0.07407407407407408,0,0,0.07407407407407408,78.37037037037038,0)" xlink:href="#z"/><use transform="matrix(0.07407407407407408,0,0,0.07407407407407408,99.11111111111113,0)" xlink:href="#ag"/><use transform="matrix(0.07407407407407408,0,0,0.07407407407407408,119.85185185185186,0)" xlink:href="#J"/><use transform="matrix(0.07407407407407408,0,0,0.07407407407407408,139.03703703703707,0)" xlink:href="#I"/><use transform="matrix(0.07407407407407408,0,0,0.07407407407407408,156.81481481481484,0)" xlink:href="#G"/><use transform="matrix(0.07407407407407408,0,0,0.07407407407407408,174.5925925925926,0)" xlink:href="#G"/></g><g id="s"><use transform="matrix(0.06790123456790124,0,0,0.06790123456790124,0,0)" xlink:href="#y"/><use transform="matrix(0.06790123456790124,0,0,0.06790123456790124,13.580246913580249,0)" xlink:href="#x"/><use transform="matrix(0.06790123456790124,0,0,0.06790123456790124,27.160493827160497,0)" xlink:href="#R"/></g></defs></g></svg>