<svg xmlns="http://www.w3.org/2000/svg" xmlns:xlink="http://www.w3.org/1999/xlink" xmlns:lucid="lucid" width="1760" height="1360"><g transform="translate(0 1296)" lucid:page-tab-id="0_0"><path d="M0 0h1760v1360H0z" fill="#fff"/><path d="M1150.75-424.26L1151-308h-2l-.25-116.22-.86-21.37h2zM997.92-708.84l7.34.46 6.84.72 6.4.94 6.02 1.15 5.7 1.33 5.4 1.5 5.16 1.7 4.94 1.82 4.73 2 4.57 2.14 4.42 2.3 4.28 2.5 4.17 2.63 4.07 2.83 3.98 3.03 3.92 3.25 3.86 3.47 3.8 3.73 3.77 4 3.73 4.34 3.72 4.68 3.7 5.1 3.7 5.55 3.68 6.1 3.7 6.72 3.68 7.45 3.72 8.32 3.7 9.37 3.7 10.64 3.7 12.23 3.64 14.24 3.57 16.87 3.44 20.42 3.2 25.56 2.8 33.9.05.9h-2l-.03-.78-2.8-33.8-3.2-25.5-3.44-20.34-3.55-16.78-3.62-14.15-3.66-12.14-3.67-10.57-3.68-9.3-3.67-8.25-3.66-7.38-3.65-6.64-3.65-6.03-3.65-5.48-3.65-5.03-3.66-4.63-3.7-4.27-3.7-3.95-3.74-3.67-3.8-3.4-3.85-3.2-3.9-2.98-4-2.78-4.1-2.6-4.23-2.44-4.34-2.27-4.5-2.1-4.65-1.96-4.86-1.8-5.07-1.65-5.33-1.5-5.6-1.3-5.96-1.15-6.32-.93-6.75-.7-7.26-.46-7.86-.16.05-2z"/><path d="M990.05-709l-.05 1.12V-709zM1150-308l-4.67-14.26 9.27-.02z"/><path d="M1151.05-308h-2.1l-5-15.25 12.03-.03zm-4.34-13.26l3.3 10.02 3.23-10.03z"/><use xlink:href="#a" transform="matrix(1,0,0,1,995.8345683733593,-474.92640692940444) translate(0 19.555555555555557)"/><use xlink:href="#b" transform="matrix(1,0,0,1,995.8345683733593,-474.92640692940444) translate(111.22222222222224 19.555555555555557)"/><use xlink:href="#c" transform="matrix(1,0,0,1,995.8345683733593,-474.92640692940444) translate(166.76543209876547 19.555555555555557)"/><use xlink:href="#d" transform="matrix(1,0,0,1,995.8345683733593,-474.92640692940444) translate(216.7407407407408 19.555555555555557)"/><path d="M940-28c0 33.14-26.86 60-60 60s-60-26.86-60-60 26.86-60 60-60 60 26.86 60 60z" stroke="#000" stroke-width="2" fill="#fff"/><path d="M916-28c0 19.88-16.12 36-36 36s-36-16.12-36-36 16.12-36 36-36 36 16.12 36 36zM920-1228c0 22.1-17.9 40-40 40s-40-17.9-40-40 17.9-40 40-40 40 17.9 40 40z" stroke="#000" stroke-width="2"/><path d="M881-1048h-2v-55.33h2zm0-84.67h-2V-1188h2zM881-1188h-1l1-.04zm-2 0h1z"/><path d="M880-1048l-4.64-14.27h9.28z"/><path d="M881.05-1048h-2.1l-4.96-15.27h12zm-4.3-13.27l3.25 10.03 3.26-10.03z"/><use xlink:href="#e" transform="matrix(1,0,0,1,835.966049382716,-1132.6666666666667) translate(0 19.555555555555557)"/><use xlink:href="#f" transform="matrix(1,0,0,1,835.966049382716,-1132.6666666666667) translate(55.543209876543216 19.555555555555557)"/><path d="M794-768c-13.25 0-24 10.74-24 24v72c0 13.25 10.75 24 24 24h172c13.25 0 24-10.75 24-24v-72c0-13.26-10.75-24-24-24z" stroke="#000" stroke-width="2" fill="#fff"/><use xlink:href="#g" transform="matrix(1,0,0,1,778,-760.0041849581502) translate(5.8148148148148096 57.333333333333336)"/><path d="M524-308c-13.25 0-24 10.75-24 24v72c0 13.25 10.75 24 24 24h172c13.25 0 24-10.75 24-24v-72c0-13.25-10.75-24-24-24z" stroke="#000" stroke-width="2" fill="#fff"/><use xlink:href="#h" transform="matrix(1,0,0,1,508,-300) translate(5.148148148148138 57.333333333333336)"/><path d="M784.4-649.06l-2.6 6.12-2.12 5.63-1.73 5.22-1.4 4.88-1.08 4.56-.84 4.3-.62 4.05-.4 3.85-.26 3.65-.08 3.5.05 3.33.2 3.2.3 3.1.43 2.97.54 2.9.65 2.8.75 2.73.85 2.67.96 2.6 1.06 2.57 1.18 2.52 1.28 2.47 1.4 2.45 1.52 2.42 1.65 2.4 1.8 2.37 1.92 2.37 2.08 2.34 2.26 2.34 2.44 2.3 2.63 2.3 2.86 2.28 3.08 2.26 3.33 2.23 3.6 2.2 3.9 2.17 3.67 1.85h-4.46l-.16-.08-3.96-2.2-3.67-2.24-3.4-2.28-3.15-2.3-2.92-2.34-2.7-2.35-2.5-2.37-2.32-2.4-2.13-2.4-2-2.4-1.82-2.45-1.7-2.46-1.57-2.5-1.44-2.5-1.32-2.57-1.2-2.6-1.1-2.63-1-2.7-.87-2.74-.77-2.82-.67-2.88-.54-2.98-.44-3.06-.32-3.17-.2-3.3-.04-3.42.1-3.57.24-3.73.43-3.92.63-4.14.86-4.36 1.1-4.65 1.42-4.97 1.75-5.3 2.14-5.72 2.63-6.14zm195.1 2.57l3 5.82 2.5 5.37 2.07 4.97 1.7 4.64 1.4 4.36 1.12 4.1.88 3.85.68 3.67.5 3.5.33 3.3.18 3.2.05 3.05-.07 2.94-.2 2.85-.3 2.77-.4 2.7-.52 2.6-.6 2.56-.72 2.5-.8 2.45-.92 2.42-1 2.38-1.13 2.35-1.23 2.32-1.34 2.3-1.47 2.3-1.6 2.27-1.73 2.26-1.88 2.26-2.04 2.25-2.22 2.23-2.4 2.23-2.6 2.23-2.83 2.2-3.07 2.22-3.33 2.2-3.6 2.15-2.85 1.55h-4.42l2.45-1.2 3.84-2.1 3.53-2.1 3.26-2.15 3-2.16 2.75-2.15 2.55-2.18 2.34-2.18 2.15-2.2 2-2.18 1.82-2.2 1.68-2.18 1.55-2.2 1.42-2.23 1.3-2.22 1.2-2.25 1.07-2.28.98-2.3.88-2.34.78-2.36.7-2.42.6-2.47.48-2.54.4-2.6.3-2.66.18-2.77.07-2.86-.05-2.96-.18-3.1-.33-3.24-.48-3.4-.68-3.58-.87-3.78-1.1-4-1.37-4.28-1.68-4.56-2.03-4.9-2.47-5.3-2.97-5.74-1.92-3.43 1.76-.97zM784.77-649.98l-.35.9-1.87-.74.4-.98z"/><path d="M987.3-638.87l-8.24 4.22-2.38-14.8z"/><path d="M989-638.6l-10.7 5.47-2.72-16.88.12-.05 1.15-.65zm-9.17 2.44l5.8-2.98-7.47-7.44z"/><use xlink:href="#a" transform="matrix(1,0,0,1,767.1071597036623,-535.1847839472846) translate(0 19.555555555555557)"/><use xlink:href="#i" transform="matrix(1,0,0,1,767.1071597036623,-535.1847839472846) translate(111.22222222222224 19.555555555555557)"/><use xlink:href="#j" transform="matrix(1,0,0,1,767.1071597036623,-535.1847839472846) translate(169.41358024691363 19.555555555555557)"/><path d="M1064-308c-13.25 0-24 10.75-24 24v72c0 13.25 10.75 24 24 24h172c13.25 0 24-10.75 24-24v-72c0-13.25-10.75-24-24-24z" stroke="#000" stroke-width="2" fill="#fff"/><use xlink:href="#k" transform="matrix(1,0,0,1,1048,-300) translate(56.148148148148145 57.333333333333336)"/><path d="M611.25-424.22L611-308h-2l.25-116.26.86-21.33h2zM770.02-707l-7.86.16-7.25.45-6.74.72-6.32.93-5.95 1.14-5.62 1.3-5.33 1.5-5.07 1.64-4.86 1.8-4.66 1.96-4.5 2.1-4.33 2.28-4.22 2.44-4.1 2.6-4 2.78-3.9 2.98-3.86 3.2-3.8 3.4-3.74 3.67-3.7 3.95-3.7 4.27-3.65 4.62-3.65 5.02-3.65 5.48-3.64 6.03-3.64 6.64-3.66 7.38-3.67 8.25-3.68 9.3-3.67 10.56-3.66 12.15-3.63 14.16-3.56 16.78-3.43 20.34-3.2 25.5-2.8 33.8-.02.8h-2l.04-.92 2.8-33.9 3.2-25.57 3.45-20.43 3.57-16.86 3.65-14.23 3.68-12.23 3.7-10.65 3.7-9.38 3.7-8.32 3.7-7.45 3.7-6.72 3.68-6.1 3.7-5.56 3.7-5.1 3.7-4.68 3.74-4.34 3.77-4 3.8-3.74 3.86-3.47 3.92-3.24 3.98-3.02 4.08-2.83 4.18-2.64 4.28-2.47 4.42-2.3 4.57-2.16 4.73-2 4.94-1.82 5.15-1.68 5.4-1.5 5.7-1.34 6.03-1.15 6.4-.94 6.84-.72 7.34-.46 7.9-.16zM770-707.88l-.05-1.12z"/><path d="M614.67-322.26L610-308l-4.6-14.28z"/><path d="M616.04-323.25l-5 15.25h-2.1l-4.92-15.28zm-6.03 12l3.3-10-6.53-.02z"/><use xlink:href="#a" transform="matrix(1,0,0,1,511.9462958241716,-474.92640692940455) translate(0 19.555555555555557)"/><use xlink:href="#l" transform="matrix(1,0,0,1,511.9462958241716,-474.92640692940455) translate(111.22222222222224 19.555555555555557)"/><path d="M794-1048c-13.25 0-24 10.75-24 24v72c0 13.25 10.75 24 24 24h172c13.25 0 24-10.75 24-24v-72c0-13.25-10.75-24-24-24z" stroke="#000" stroke-width="2" fill="#fff"/><use xlink:href="#m" transform="matrix(1,0,0,1,778,-1040) translate(41.37037037037036 57.333333333333336)"/><path d="M881-769h-2v-64.83h2zm0-94.17h-2V-928h2zM881-928h-2 2z"/><path d="M880-769l-4.64-14.27h9.28z"/><path d="M880.73-768h-1.46L874-784.27h12zm-4-14.27l3.27 10.03 3.26-10.03z"/><use xlink:href="#n" transform="matrix(1,0,0,1,837.2561728395062,-863.1675667017275) translate(0 19.555555555555557)"/><path d="M663.6-78.74l5.58 4.42 6 4.37 6.48 4.3 6.95 4.2 7.48 4.1 8 3.98 8.6 3.82 9.15 3.62 9.74 3.4 10.32 3.1 10.88 2.8 11.4 2.42 11.88 2 12.26 1.55 12.55 1.05 12.74.53 6.4.07v2l-6.44-.07-12.82-.53-12.63-1.06-12.33-1.56-11.96-2.02-11.48-2.44-10.96-2.82-10.4-3.14-9.83-3.4-9.23-3.67-8.66-3.86-8.08-4-7.55-4.16-7-4.25-6.55-4.34-6.08-4.42-5.64-4.48-4.42-3.8h3.07zM612.14-180.5l.4 6.25.62 6.04.86 5.83 1.1 5.67 1.28 5.5 1.5 5.4 1.7 5.25 1.92 5.14 2.13 5.05 2.33 4.97 2.56 4.9 2.8 4.82 3.02 4.77.38.55h-2.4l-2.72-4.28-2.83-4.9-2.6-4.96-2.38-5.04-2.16-5.13-1.94-5.23-1.73-5.33-1.54-5.46-1.3-5.6-1.1-5.74-.88-5.92-.65-6.12-.4-6.34-.13-6.56 2-.04z"/><path d="M612-187.05l-2 .1-.05-1.05h2zM820-28l-14.4 4.23.27-9.27z"/><path d="M820.04-29.05L820-28l.04 1.03-15.47 4.55.34-12.02zm-13.4 3.93l10.13-2.97-9.94-3.53z"/><g><use xlink:href="#o" transform="matrix(1,0,0,1,519.8726343047982,-110.3473702734447) translate(0 19.555555555555557)"/><use xlink:href="#p" transform="matrix(1,0,0,1,519.8726343047982,-110.3473702734447) translate(59.753086419753096 19.555555555555557)"/><use xlink:href="#q" transform="matrix(1,0,0,1,519.8726343047982,-110.3473702734447) translate(86.9135802469136 19.555555555555557)"/><use xlink:href="#r" transform="matrix(1,0,0,1,519.8726343047982,-110.3473702734447) translate(181.83950617283955 19.555555555555557)"/></g><path d="M1072.87-59.86l-7.58 4.17-8.14 4.04-8.7 3.87-9.27 3.7-9.88 3.42-10.45 3.15-11 2.82-11.53 2.44-12 2.03-12.37 1.56-12.67 1.06-12.84.53L940-27v-2l6.4-.07 12.78-.53 12.6-1.06 12.28-1.55 11.9-2.02 11.45-2.43 10.94-2.8 10.36-3.13 9.8-3.4 9.2-3.65 8.6-3.84 8.06-4 7.5-4.12 1.8-1.07h3.87zM1151-187.98l-.14 6.6-.4 6.38-.65 6.16-.87 5.97-1.1 5.8-1.32 5.62-1.53 5.5-1.74 5.37-1.96 5.27-2.17 5.15-2.4 5.08-2.6 5-2.86 4.94-3.1 4.88-3.34 4.82-3.63 4.77-3.9 4.73-3.54 3.92H1111l.58-.6 4.17-4.64 3.85-4.66 3.58-4.7 3.3-4.76 3.05-4.8 2.8-4.87 2.6-4.93 2.34-5 2.14-5.1 1.94-5.18 1.72-5.3 1.5-5.4 1.3-5.56 1.1-5.7.87-5.9.64-6.06.4-6.3.13-6.56z"/><path d="M1151-187.95l-1.06-.05h1.06zM954.4-23.77L940-28l14.13-5.04z"/><path d="M955.43-22.42l-15.47-4.55L940-28l-.04-1.05 15.13-5.4zm-12.2-5.67l10.12 2.98-.18-6.5z"/><g><use xlink:href="#o" transform="matrix(1,0,0,1,971.7005169982706,-92.0083155284697) translate(0 19.555555555555557)"/><use xlink:href="#p" transform="matrix(1,0,0,1,971.7005169982706,-92.0083155284697) translate(59.753086419753096 19.555555555555557)"/><use xlink:href="#q" transform="matrix(1,0,0,1,971.7005169982706,-92.0083155284697) translate(86.9135802469136 19.555555555555557)"/><use xlink:href="#r" transform="matrix(1,0,0,1,971.7005169982706,-92.0083155284697) translate(181.83950617283955 19.555555555555557)"/></g><defs><path d="M85-194c31 0 48 13 60 33l-1-100h32l1 261h-30c-2-10 0-23-3-31C134-8 116 4 85 4 32 4 16-35 15-94c0-66 23-100 70-100zm9 24c-40 0-46 34-46 75 0 40 6 74 45 74 42 0 51-32 51-76 0-42-9-74-50-73" id="s"/><path d="M100-194c62-1 85 37 85 99 1 63-27 99-86 99S16-35 15-95c0-66 28-99 85-99zM99-20c44 1 53-31 53-75 0-43-8-75-51-75s-53 32-53 75 10 74 51 75" id="t"/><path d="M206 0h-36l-40-164L89 0H53L-1-190h32L70-26l43-164h34l41 164 42-164h31" id="u"/><path d="M117-194c89-4 53 116 60 194h-32v-121c0-31-8-49-39-48C34-167 62-67 57 0H25l-1-190h30c1 10-1 24 2 32 11-22 29-35 61-36" id="v"/><path d="M24 0v-261h32V0H24" id="w"/><path d="M141-36C126-15 110 5 73 4 37 3 15-17 15-53c-1-64 63-63 125-63 3-35-9-54-41-54-24 1-41 7-42 31l-33-3c5-37 33-52 76-52 45 0 72 20 72 64v82c-1 20 7 32 28 27v20c-31 9-61-2-59-35zM48-53c0 20 12 33 32 33 41-3 63-29 60-74-43 2-92-5-92 41" id="x"/><g id="a"><use transform="matrix(0.06790123456790124,0,0,0.06790123456790124,0,0)" xlink:href="#s"/><use transform="matrix(0.06790123456790124,0,0,0.06790123456790124,13.580246913580249,0)" xlink:href="#t"/><use transform="matrix(0.06790123456790124,0,0,0.06790123456790124,27.160493827160497,0)" xlink:href="#u"/><use transform="matrix(0.06790123456790124,0,0,0.06790123456790124,44.74691358024692,0)" xlink:href="#v"/><use transform="matrix(0.06790123456790124,0,0,0.06790123456790124,58.32716049382716,0)" xlink:href="#w"/><use transform="matrix(0.06790123456790124,0,0,0.06790123456790124,63.69135802469136,0)" xlink:href="#t"/><use transform="matrix(0.06790123456790124,0,0,0.06790123456790124,77.27160493827161,0)" xlink:href="#x"/><use transform="matrix(0.06790123456790124,0,0,0.06790123456790124,90.85185185185186,0)" xlink:href="#s"/></g><path d="M114-163C36-179 61-72 57 0H25l-1-190h30c1 12-1 29 2 39 6-27 23-49 58-41v29" id="y"/><path d="M100-194c63 0 86 42 84 106H49c0 40 14 67 53 68 26 1 43-12 49-29l28 8c-11 28-37 45-77 45C44 4 14-33 15-96c1-61 26-98 85-98zm52 81c6-60-76-77-97-28-3 7-6 17-6 28h103" id="z"/><path d="M59-47c-2 24 18 29 38 22v24C64 9 27 4 27-40v-127H5v-23h24l9-43h21v43h35v23H59v120" id="A"/><path d="M179-190L93 31C79 59 56 82 12 73V49c39 6 53-20 64-50L1-190h34L92-34l54-156h33" id="B"/><g id="b"><use transform="matrix(0.06790123456790124,0,0,0.06790123456790124,0,0)" xlink:href="#y"/><use transform="matrix(0.06790123456790124,0,0,0.06790123456790124,8.080246913580249,0)" xlink:href="#z"/><use transform="matrix(0.06790123456790124,0,0,0.06790123456790124,21.660493827160497,0)" xlink:href="#A"/><use transform="matrix(0.06790123456790124,0,0,0.06790123456790124,28.45061728395062,0)" xlink:href="#y"/><use transform="matrix(0.06790123456790124,0,0,0.06790123456790124,36.53086419753087,0)" xlink:href="#B"/></g><path d="M24-231v-30h32v30H24zM24 0v-190h32V0H24" id="C"/><path d="M210-169c-67 3-38 105-44 169h-31v-121c0-29-5-50-35-48C34-165 62-65 56 0H25l-1-190h30c1 10-1 24 2 32 10-44 99-50 107 0 11-21 27-35 58-36 85-2 47 119 55 194h-31v-121c0-29-5-49-35-48" id="D"/><g id="c"><use transform="matrix(0.06790123456790124,0,0,0.06790123456790124,0,0)" xlink:href="#w"/><use transform="matrix(0.06790123456790124,0,0,0.06790123456790124,5.364197530864199,0)" xlink:href="#C"/><use transform="matrix(0.06790123456790124,0,0,0.06790123456790124,10.728395061728397,0)" xlink:href="#D"/><use transform="matrix(0.06790123456790124,0,0,0.06790123456790124,31.030864197530867,0)" xlink:href="#C"/><use transform="matrix(0.06790123456790124,0,0,0.06790123456790124,36.39506172839507,0)" xlink:href="#A"/></g><path d="M96-169c-40 0-48 33-48 73s9 75 48 75c24 0 41-14 43-38l32 2c-6 37-31 61-74 61-59 0-76-41-82-99-10-93 101-131 147-64 4 7 5 14 7 22l-32 3c-4-21-16-35-41-35" id="E"/><path d="M106-169C34-169 62-67 57 0H25v-261h32l-1 103c12-21 28-36 61-36 89 0 53 116 60 194h-32v-121c2-32-8-49-39-48" id="F"/><g id="d"><use transform="matrix(0.06790123456790124,0,0,0.06790123456790124,0,0)" xlink:href="#y"/><use transform="matrix(0.06790123456790124,0,0,0.06790123456790124,8.080246913580249,0)" xlink:href="#z"/><use transform="matrix(0.06790123456790124,0,0,0.06790123456790124,21.660493827160497,0)" xlink:href="#x"/><use transform="matrix(0.06790123456790124,0,0,0.06790123456790124,35.24074074074075,0)" xlink:href="#E"/><use transform="matrix(0.06790123456790124,0,0,0.06790123456790124,47.46296296296297,0)" xlink:href="#F"/><use transform="matrix(0.06790123456790124,0,0,0.06790123456790124,61.043209876543216,0)" xlink:href="#z"/><use transform="matrix(0.06790123456790124,0,0,0.06790123456790124,74.62345679012347,0)" xlink:href="#s"/></g><path d="M190 0L58-211 59 0H30v-248h39L202-35l-2-213h31V0h-41" id="G"/><g id="e"><use transform="matrix(0.06790123456790124,0,0,0.06790123456790124,0,0)" xlink:href="#G"/><use transform="matrix(0.06790123456790124,0,0,0.06790123456790124,17.58641975308642,0)" xlink:href="#z"/><use transform="matrix(0.06790123456790124,0,0,0.06790123456790124,31.16666666666667,0)" xlink:href="#u"/></g><path d="M24-231v-30h32v30H24zM-9 49c24 4 33-6 33-30v-209h32V24c2 40-23 58-65 49V49" id="H"/><path d="M115-194c53 0 69 39 70 98 0 66-23 100-70 100C84 3 66-7 56-30L54 0H23l1-261h32v101c10-23 28-34 59-34zm-8 174c40 0 45-34 45-75 0-40-5-75-45-74-42 0-51 32-51 76 0 43 10 73 51 73" id="I"/><g id="f"><use transform="matrix(0.06790123456790124,0,0,0.06790123456790124,0,0)" xlink:href="#H"/><use transform="matrix(0.06790123456790124,0,0,0.06790123456790124,5.364197530864199,0)" xlink:href="#t"/><use transform="matrix(0.06790123456790124,0,0,0.06790123456790124,18.944444444444446,0)" xlink:href="#I"/></g><path d="M33 0v-248h34V0H33" id="J"/><path d="M-5 72V49h209v23H-5" id="K"/><path d="M30-248c87 1 191-15 191 75 0 78-77 80-158 76V0H30v-248zm33 125c57 0 124 11 124-50 0-59-68-47-124-48v98" id="L"/><path d="M233-177c-1 41-23 64-60 70L243 0h-38l-65-103H63V0H30v-248c88 3 205-21 203 71zM63-129c60-2 137 13 137-47 0-61-80-42-137-45v92" id="M"/><path d="M140-251c81 0 123 46 123 126C263-46 219 4 140 4 59 4 17-45 17-125s42-126 123-126zm0 227c63 0 89-41 89-101s-29-99-89-99c-61 0-89 39-89 99S79-25 140-24" id="N"/><path d="M143 4C61 4 22-44 18-125c-5-107 100-154 193-111 17 8 29 25 37 43l-32 9c-13-25-37-40-76-40-61 0-88 39-88 99 0 61 29 100 91 101 35 0 62-11 79-27v-45h-74v-28h105v86C228-13 192 4 143 4" id="O"/><path d="M30 0v-248h187v28H63v79h144v27H63v87h162V0H30" id="P"/><path d="M185-189c-5-48-123-54-124 2 14 75 158 14 163 119 3 78-121 87-175 55-17-10-28-26-33-46l33-7c5 56 141 63 141-1 0-78-155-14-162-118-5-82 145-84 179-34 5 7 8 16 11 25" id="Q"/><g id="g"><use transform="matrix(0.07407407407407408,0,0,0.07407407407407408,0,0)" xlink:href="#J"/><use transform="matrix(0.07407407407407408,0,0,0.07407407407407408,7.407407407407408,0)" xlink:href="#G"/><use transform="matrix(0.07407407407407408,0,0,0.07407407407407408,26.592592592592595,0)" xlink:href="#K"/><use transform="matrix(0.07407407407407408,0,0,0.07407407407407408,41.40740740740741,0)" xlink:href="#L"/><use transform="matrix(0.07407407407407408,0,0,0.07407407407407408,59.18518518518519,0)" xlink:href="#M"/><use transform="matrix(0.07407407407407408,0,0,0.07407407407407408,78.37037037037038,0)" xlink:href="#N"/><use transform="matrix(0.07407407407407408,0,0,0.07407407407407408,99.11111111111113,0)" xlink:href="#O"/><use transform="matrix(0.07407407407407408,0,0,0.07407407407407408,119.85185185185186,0)" xlink:href="#M"/><use transform="matrix(0.07407407407407408,0,0,0.07407407407407408,139.03703703703707,0)" xlink:href="#P"/><use transform="matrix(0.07407407407407408,0,0,0.07407407407407408,156.81481481481484,0)" xlink:href="#Q"/><use transform="matrix(0.07407407407407408,0,0,0.07407407407407408,174.5925925925926,0)" xlink:href="#Q"/></g><path d="M30-248c118-7 216 8 213 122C240-48 200 0 122 0H30v-248zM63-27c89 8 146-16 146-99s-60-101-146-95v194" id="R"/><path d="M266 0h-40l-56-210L115 0H75L2-248h35L96-30l15-64 43-154h32l59 218 59-218h35" id="S"/><path d="M30 0v-248h33v221h125V0H30" id="T"/><path d="M205 0l-28-72H64L36 0H1l101-248h38L239 0h-34zm-38-99l-47-123c-12 45-31 82-46 123h93" id="U"/><g id="h"><use transform="matrix(0.07407407407407408,0,0,0.07407407407407408,0,0)" xlink:href="#R"/><use transform="matrix(0.07407407407407408,0,0,0.07407407407407408,19.185185185185187,0)" xlink:href="#N"/><use transform="matrix(0.07407407407407408,0,0,0.07407407407407408,39.92592592592593,0)" xlink:href="#S"/><use transform="matrix(0.07407407407407408,0,0,0.07407407407407408,65.03703703703704,0)" xlink:href="#G"/><use transform="matrix(0.07407407407407408,0,0,0.07407407407407408,84.22222222222223,0)" xlink:href="#T"/><use transform="matrix(0.07407407407407408,0,0,0.07407407407407408,99.03703703703704,0)" xlink:href="#N"/><use transform="matrix(0.07407407407407408,0,0,0.07407407407407408,119.7777777777778,0)" xlink:href="#U"/><use transform="matrix(0.07407407407407408,0,0,0.07407407407407408,137.55555555555557,0)" xlink:href="#R"/><use transform="matrix(0.07407407407407408,0,0,0.07407407407407408,156.74074074074076,0)" xlink:href="#P"/><use transform="matrix(0.07407407407407408,0,0,0.07407407407407408,174.51851851851853,0)" xlink:href="#R"/></g><g id="i"><use transform="matrix(0.06790123456790124,0,0,0.06790123456790124,0,0)" xlink:href="#z"/><use transform="matrix(0.06790123456790124,0,0,0.06790123456790124,13.580246913580249,0)" xlink:href="#y"/><use transform="matrix(0.06790123456790124,0,0,0.06790123456790124,21.660493827160497,0)" xlink:href="#y"/><use transform="matrix(0.06790123456790124,0,0,0.06790123456790124,29.740740740740748,0)" xlink:href="#t"/><use transform="matrix(0.06790123456790124,0,0,0.06790123456790124,43.320987654320994,0)" xlink:href="#y"/></g><path d="M87 75C49 33 22-17 22-94c0-76 28-126 65-167h31c-38 41-64 92-64 168S80 34 118 75H87" id="V"/><path d="M33-261c38 41 65 92 65 168S71 34 33 75H2C39 34 66-17 66-93S39-220 2-261h31" id="W"/><g id="j"><use transform="matrix(0.06790123456790124,0,0,0.06790123456790124,0,0)" xlink:href="#V"/><use transform="matrix(0.06790123456790124,0,0,0.06790123456790124,8.080246913580249,0)" xlink:href="#y"/><use transform="matrix(0.06790123456790124,0,0,0.06790123456790124,16.160493827160497,0)" xlink:href="#z"/><use transform="matrix(0.06790123456790124,0,0,0.06790123456790124,29.740740740740748,0)" xlink:href="#A"/><use transform="matrix(0.06790123456790124,0,0,0.06790123456790124,36.530864197530875,0)" xlink:href="#y"/><use transform="matrix(0.06790123456790124,0,0,0.06790123456790124,44.611111111111114,0)" xlink:href="#B"/><use transform="matrix(0.06790123456790124,0,0,0.06790123456790124,56.83333333333334,0)" xlink:href="#W"/></g><path d="M63-220v92h138v28H63V0H30v-248h175v28H63" id="X"/><g id="k"><use transform="matrix(0.07407407407407408,0,0,0.07407407407407408,0,0)" xlink:href="#X"/><use transform="matrix(0.07407407407407408,0,0,0.07407407407407408,14.740740740740744,0)" xlink:href="#U"/><use transform="matrix(0.07407407407407408,0,0,0.07407407407407408,32.51851851851852,0)" xlink:href="#J"/><use transform="matrix(0.07407407407407408,0,0,0.07407407407407408,39.925925925925924,0)" xlink:href="#T"/><use transform="matrix(0.07407407407407408,0,0,0.07407407407407408,54.74074074074074,0)" xlink:href="#P"/><use transform="matrix(0.07407407407407408,0,0,0.07407407407407408,72.51851851851852,0)" xlink:href="#R"/></g><path d="M135-143c-3-34-86-38-87 0 15 53 115 12 119 90S17 21 10-45l28-5c4 36 97 45 98 0-10-56-113-15-118-90-4-57 82-63 122-42 12 7 21 19 24 35" id="Y"/><path d="M84 4C-5 8 30-112 23-190h32v120c0 31 7 50 39 49 72-2 45-101 50-169h31l1 190h-30c-1-10 1-25-2-33-11 22-28 36-60 37" id="Z"/><g id="l"><use transform="matrix(0.06790123456790124,0,0,0.06790123456790124,0,0)" xlink:href="#Y"/><use transform="matrix(0.06790123456790124,0,0,0.06790123456790124,12.222222222222223,0)" xlink:href="#Z"/><use transform="matrix(0.06790123456790124,0,0,0.06790123456790124,25.802469135802472,0)" xlink:href="#E"/><use transform="matrix(0.06790123456790124,0,0,0.06790123456790124,38.0246913580247,0)" xlink:href="#E"/><use transform="matrix(0.06790123456790124,0,0,0.06790123456790124,50.24691358024692,0)" xlink:href="#z"/><use transform="matrix(0.06790123456790124,0,0,0.06790123456790124,63.827160493827165,0)" xlink:href="#Y"/><use transform="matrix(0.06790123456790124,0,0,0.06790123456790124,76.0493827160494,0)" xlink:href="#Y"/></g><g id="m"><use transform="matrix(0.07407407407407408,0,0,0.07407407407407408,0,0)" xlink:href="#L"/><use transform="matrix(0.07407407407407408,0,0,0.07407407407407408,17.77777777777778,0)" xlink:href="#P"/><use transform="matrix(0.07407407407407408,0,0,0.07407407407407408,35.55555555555556,0)" xlink:href="#G"/><use transform="matrix(0.07407407407407408,0,0,0.07407407407407408,54.74074074074075,0)" xlink:href="#R"/><use transform="matrix(0.07407407407407408,0,0,0.07407407407407408,73.92592592592594,0)" xlink:href="#J"/><use transform="matrix(0.07407407407407408,0,0,0.07407407407407408,81.33333333333334,0)" xlink:href="#G"/><use transform="matrix(0.07407407407407408,0,0,0.07407407407407408,100.51851851851853,0)" xlink:href="#O"/></g><path d="M115-194c55 1 70 41 70 98S169 2 115 4C84 4 66-9 55-30l1 105H24l-1-265h31l2 30c10-21 28-34 59-34zm-8 174c40 0 45-34 45-75s-6-73-45-74c-42 0-51 32-51 76 0 43 10 73 51 73" id="aa"/><g id="n"><use transform="matrix(0.06790123456790124,0,0,0.06790123456790124,0,0)" xlink:href="#aa"/><use transform="matrix(0.06790123456790124,0,0,0.06790123456790124,13.580246913580249,0)" xlink:href="#y"/><use transform="matrix(0.06790123456790124,0,0,0.06790123456790124,21.660493827160497,0)" xlink:href="#t"/><use transform="matrix(0.06790123456790124,0,0,0.06790123456790124,35.24074074074075,0)" xlink:href="#E"/><use transform="matrix(0.06790123456790124,0,0,0.06790123456790124,47.46296296296297,0)" xlink:href="#z"/><use transform="matrix(0.06790123456790124,0,0,0.06790123456790124,61.043209876543216,0)" xlink:href="#Y"/><use transform="matrix(0.06790123456790124,0,0,0.06790123456790124,73.26543209876544,0)" xlink:href="#Y"/></g><g id="o"><use transform="matrix(0.06790123456790124,0,0,0.06790123456790124,0,0)" xlink:href="#aa"/><use transform="matrix(0.06790123456790124,0,0,0.06790123456790124,13.580246913580249,0)" xlink:href="#Z"/><use transform="matrix(0.06790123456790124,0,0,0.06790123456790124,27.160493827160497,0)" xlink:href="#Y"/><use transform="matrix(0.06790123456790124,0,0,0.06790123456790124,39.38271604938272,0)" xlink:href="#F"/></g><g id="p"><use transform="matrix(0.06790123456790124,0,0,0.06790123456790124,0,0)" xlink:href="#A"/><use transform="matrix(0.06790123456790124,0,0,0.06790123456790124,6.790123456790124,0)" xlink:href="#t"/></g><path d="M143 0L79-87 56-68V0H24v-261h32v163l83-92h37l-77 82L181 0h-38" id="ab"/><g id="q"><use transform="matrix(0.06790123456790124,0,0,0.06790123456790124,0,0)" xlink:href="#E"/><use transform="matrix(0.06790123456790124,0,0,0.06790123456790124,12.222222222222223,0)" xlink:href="#x"/><use transform="matrix(0.06790123456790124,0,0,0.06790123456790124,25.802469135802472,0)" xlink:href="#w"/><use transform="matrix(0.06790123456790124,0,0,0.06790123456790124,31.16666666666667,0)" xlink:href="#w"/><use transform="matrix(0.06790123456790124,0,0,0.06790123456790124,36.53086419753087,0)" xlink:href="#I"/><use transform="matrix(0.06790123456790124,0,0,0.06790123456790124,50.111111111111114,0)" xlink:href="#x"/><use transform="matrix(0.06790123456790124,0,0,0.06790123456790124,63.69135802469136,0)" xlink:href="#E"/><use transform="matrix(0.06790123456790124,0,0,0.06790123456790124,75.91358024691358,0)" xlink:href="#ab"/></g><path d="M145-31C134-9 116 4 85 4 32 4 16-35 15-94c0-59 17-99 70-100 32-1 48 14 60 33 0-11-1-24 2-32h30l-1 268h-32zM93-21c41 0 51-33 51-76s-8-73-50-73c-40 0-46 35-46 75s5 74 45 74" id="ac"/><g id="r"><use transform="matrix(0.06790123456790124,0,0,0.06790123456790124,0,0)" xlink:href="#ac"/><use transform="matrix(0.06790123456790124,0,0,0.06790123456790124,13.580246913580249,0)" xlink:href="#Z"/><use transform="matrix(0.06790123456790124,0,0,0.06790123456790124,27.160493827160497,0)" xlink:href="#z"/><use transform="matrix(0.06790123456790124,0,0,0.06790123456790124,40.74074074074075,0)" xlink:href="#Z"/><use transform="matrix(0.06790123456790124,0,0,0.06790123456790124,54.320987654320994,0)" xlink:href="#z"/></g></defs></g></svg>