<svg xmlns="http://www.w3.org/2000/svg" xmlns:xlink="http://www.w3.org/1999/xlink" xmlns:lucid="lucid" width="1262.8" height="1328"><g transform="translate(-306.83333333333337 1288)" lucid:page-tab-id="0_0"><path d="M0 0h1760v1360H0z" fill="#fff"/><path d="M1144.08-583.8l3 23.97 2.36 28.14 1.37 33.1.2 18.6h-2l-.2-18.56-1.36-33-2.34-28.06-3-23.9-.57-3.38h2.03zM996.82-768.87l6.43.4 6.1.65 5.8.85 5.54 1.06 5.3 1.24 5.12 1.42 4.94 1.6 4.78 1.8 4.65 1.94 4.53 2.13 4.43 2.32 4.34 2.5 4.27 2.72 4.22 2.93 4.15 3.16 4.12 3.4 4.1 3.7 4.08 4 4.06 4.33 4.08 4.7 4.06 5.13 4.08 5.6 4.1 6.17 4.1 6.8 4.12 7.5 4.14 8.34 4.14 9.3 4.14 10.48 4.1 11.82 4.06 13.44 3.94 15.37 1.23 5.8h-2.05l-1.14-5.35-3.9-15.3-4.03-13.34-4.08-11.74-4.12-10.4-4.1-9.23-4.1-8.28-4.1-7.43-4.06-6.72-4.04-6.1-4.03-5.54-4-5.07-4.02-4.64-4-4.27-4.03-3.94-4.03-3.63-4.06-3.37-4.1-3.1-4.13-2.9-4.2-2.66-4.28-2.47-4.36-2.27-4.46-2.1-4.57-1.92-4.7-1.74-4.86-1.58-5.03-1.4-5.22-1.23-5.46-1.04-5.72-.84-6-.63-6.36-.4-6.76-.14.04-2z"/><path d="M990.05-769l-.05 1.07V-769zM1150-480l-4.78-14.22 9.27-.1z"/><path d="M1151.05-480h-2.1l-5.12-15.2 12.02-.13zm-4.45-13.23l3.37 10 3.15-10.07z"/><use xlink:href="#a" transform="matrix(1,0,0,1,900.9216465668151,-616.2372090845497) translate(0 19.555555555555557)"/><use xlink:href="#b" transform="matrix(1,0,0,1,900.9216465668151,-616.2372090845497) translate(131.3888888888889 19.555555555555557)"/><use xlink:href="#c" transform="matrix(1,0,0,1,900.9216465668151,-616.2372090845497) translate(166.69753086419757 19.555555555555557)"/><use xlink:href="#d" transform="matrix(1,0,0,1,900.9216465668151,-616.2372090845497) translate(224.88888888888894 19.555555555555557)"/><use xlink:href="#e" transform="matrix(1,0,0,1,900.9216465668151,-616.2372090845497) translate(264.27160493827165 19.555555555555557)"/><path d="M940-40c0 33.14-26.86 60-60 60s-60-26.86-60-60 26.86-60 60-60 60 26.86 60 60z" stroke="#000" stroke-width="2" fill="#fff"/><path d="M916-40c0 19.88-16.12 36-36 36s-36-16.12-36-36 16.12-36 36-36 36 16.12 36 36zM920-1228c0 22.1-17.9 40-40 40s-40-17.9-40-40 17.9-40 40-40 40 17.9 40 40z" stroke="#000" stroke-width="2"/><path d="M881-1080h-2v-39.33h2zm0-68.67h-2V-1188h2zM881-1188h-1l1-.04zm-2 0h1z"/><path d="M880-1080l-4.64-14.27h9.28z"/><path d="M881.05-1080h-2.1l-4.96-15.27h12zm-4.3-13.27l3.25 10.03 3.26-10.03z"/><use xlink:href="#f" transform="matrix(1,0,0,1,811.4537037037037,-1148.6666666666667) translate(0 19.555555555555557)"/><use xlink:href="#g" transform="matrix(1,0,0,1,811.4537037037037,-1148.6666666666667) translate(104.56790123456793 19.555555555555557)"/><path d="M794-828c-13.25 0-24 10.74-24 24v72c0 13.25 10.75 24 24 24h172c13.25 0 24-10.75 24-24v-72c0-13.26-10.75-24-24-24z" stroke="#000" stroke-width="2" fill="#fff"/><use xlink:href="#h" transform="matrix(1,0,0,1,778,-820.0065698557785) translate(5.8148148148148096 57.333333333333336)"/><path d="M524-480c-13.25 0-24 10.75-24 24v72c0 13.25 10.75 24 24 24h172c13.25 0 24-10.75 24-24v-72c0-13.25-10.75-24-24-24z" stroke="#000" stroke-width="2" fill="#fff"/><use xlink:href="#i" transform="matrix(1,0,0,1,508,-472) translate(37.66666666666667 57.333333333333336)"/><path d="M990-768l2.5-.06 2.4-.15 2.37-.26 2.3-.34 2.24-.43 2.22-.5 2.17-.62 2.13-.7 2.12-.8 2.1-.87 2.1-.98 2.08-1.1 2.1-1.2 2.07-1.32 2.1-1.45 2.1-1.6 2.1-1.75 2.14-1.92 2.15-2.1 2.16-2.32 2.2-2.55 2.22-2.8 2.24-3.1 2.27-3.4 2.26-3.78 2.3-4.16 2.28-4.6 2.26-5.1 2.22-5.6 2.15-6.2 2.05-6.8 1.9-7.4 1.7-8.04 1.47-8.62 1.14-9.13.8-9.54.4-9.8v-9.9l-.4-9.8-.8-9.52-1.16-9.13-1.45-8.6-1.7-8.04-1.9-7.42-2.06-6.78-2.15-6.2-2.23-5.6-2.27-5.1-2.28-4.6-2.3-4.16-2.27-3.77-2.26-3.4-2.25-3.1-2.22-2.8-2.2-2.55-2.17-2.32-2.15-2.1-2.13-1.92-2.1-1.74-2.1-1.6-2.1-1.45-2.1-1.3-2.07-1.2-2.1-1.1-2.08-1-2.1-.87-2.12-.8-2.15-.7-2.17-.6-2.2-.5-2.24-.44-2.3-.35-2.35-.25-2.4-.15-2.5-.05" stroke="#000" stroke-width="2" fill="none"/><path d="M990.13-767.02l-.13.02v-1.03zM1003.53-1013.53L990-1020l14.75-2.72z"/><path d="M1004.34-1012.04L990-1018.9v-2.12l15.92-2.94zm-11.13-7.54l9.52 4.55.86-6.46z"/><use xlink:href="#a" transform="matrix(1,0,0,1,1073.5462653723848,-908.7838106645374) translate(0 19.555555555555557)"/><use xlink:href="#b" transform="matrix(1,0,0,1,1073.5462653723848,-908.7838106645374) translate(131.3888888888889 19.555555555555557)"/><use xlink:href="#c" transform="matrix(1,0,0,1,1073.5462653723848,-908.7838106645374) translate(166.69753086419757 19.555555555555557)"/><use xlink:href="#d" transform="matrix(1,0,0,1,1073.5462653723848,-908.7838106645374) translate(224.88888888888894 19.555555555555557)"/><use xlink:href="#j" transform="matrix(1,0,0,1,1073.5462653723848,-908.7838106645374) translate(264.27160493827165 19.555555555555557)"/><path d="M1064-480c-13.25 0-24 10.75-24 24v72c0 13.25 10.75 24 24 24h172c13.25 0 24-10.75 24-24v-72c0-13.25-10.75-24-24-24z" stroke="#000" stroke-width="2" fill="#fff"/><use xlink:href="#k" transform="matrix(1,0,0,1,1048,-472) translate(56.148148148148145 57.333333333333336)"/><path d="M617.9-583.5l-3 23.88-2.34 28.05-1.37 33-.2 18.58h-2l.2-18.6 1.36-33.1 2.35-28.13 3.02-23.97 2.2-13.1h2.04zM770.02-767l-6.76.13-6.35.4-6 .63-5.72.85-5.46 1.05-5.23 1.22-5.04 1.4-4.86 1.6-4.7 1.74-4.58 1.93-4.46 2.1-4.35 2.27-4.27 2.47-4.2 2.67-4.14 2.88-4.1 3.1-4.07 3.37-4.03 3.62-4.02 3.94-4 4.27-4.02 4.64-4 5.07-4.04 5.55-4.04 6.08-4.06 6.7-4.1 7.44-4.1 8.27-4.1 9.23-4.1 10.4-4.1 11.73L629-636.9l-2.73 10.68h-2.06l2.88-11.2 4.05-13.44 4.1-11.82 4.15-10.47 4.14-9.3 4.14-8.35 4.12-7.5 4.1-6.8 4.1-6.16 4.08-5.6 4.06-5.14 4.07-4.7 4.05-4.34 4.08-4 4.1-3.7 4.12-3.4 4.16-3.16 4.23-2.93 4.27-2.7 4.34-2.52 4.43-2.32 4.54-2.13 4.66-1.95 4.78-1.78 4.94-1.6 5.1-1.43 5.33-1.25 5.55-1.07 5.8-.85 6.1-.64 6.43-.4 6.8-.15zM770-767.93l-.05-1.08z"/><path d="M614.78-494.22L610-480l-4.5-14.3z"/><path d="M616.17-495.2l-5.1 15.2h-2.12l-4.8-15.33zm-6.14 11.96l3.37-10-6.52-.06z"/><use xlink:href="#a" transform="matrix(1,0,0,1,494.45101525271133,-626.2247433824609) translate(0 19.555555555555557)"/><use xlink:href="#b" transform="matrix(1,0,0,1,494.45101525271133,-626.2247433824609) translate(131.3888888888889 19.555555555555557)"/><use xlink:href="#l" transform="matrix(1,0,0,1,494.45101525271133,-626.2247433824609) translate(166.69753086419757 19.555555555555557)"/><path d="M794-1080c-13.25 0-24 10.75-24 24v72c0 13.25 10.75 24 24 24h172c13.25 0 24-10.75 24-24v-72c0-13.25-10.75-24-24-24z" stroke="#000" stroke-width="2" fill="#fff"/><use xlink:href="#m" transform="matrix(1,0,0,1,778,-1072) translate(41.37037037037036 57.333333333333336)"/><path d="M881-829h-2v-50.84h2zm0-80.17h-2V-960h2zM881-960h-2 2z"/><path d="M880-829l-4.64-14.27h9.28z"/><path d="M880.73-828h-1.46L874-844.28h12zm-4-14.27l3.27 10.03 3.26-10.03z"/><use xlink:href="#n" transform="matrix(1,0,0,1,837.2561728395061,-909.1687591547419) translate(0 19.555555555555557)"/><path d="M643.1-177.25l5.37 12.8 5.47 11.64 5.53 10.57 5.57 9.65 5.6 8.82 5.6 8.06 5.6 7.4 5.6 6.77 5.62 6.24 5.63 5.76 5.63 5.3 5.67 4.9 5.7 4.5 5.74 4.18 5.8 3.85 5.86 3.54 5.95 3.27 6.05 3.02 6.16 2.74 6.3 2.5L764-49.5l6.63 2 6.82 1.75 7.06 1.5 7.32 1.23 7.6.96 7.95.67 8.32.36 4.3.04v2l-4.36-.05-8.4-.35-8.02-.67-7.7-.97-7.4-1.25-7.12-1.5-6.9-1.78-6.72-2.02-6.52-2.27-6.38-2.53-6.23-2.77-6.12-3.04-6.03-3.32-5.93-3.6-5.87-3.9-5.8-4.22-5.78-4.57-5.73-4.96-5.7-5.35-5.7-5.82-5.67-6.3-5.66-6.85-5.66-7.46-5.63-8.13-5.64-8.88-5.6-9.72-5.58-10.66-5.5-11.7-5.42-12.9-3.74-10.05h2.13zm-30.56-156.1l1.55 24.82 2.47 23.56 3.24 22.03 3.4 17.7h-2.05l-3.3-17.36-3.27-22.12-2.48-23.65-1.56-24.9-.54-25.7 2-.05z"/><path d="M612-359.02l-2 .05-.02-1.03h2zM820-40l-14.44 4.07.37-9.26z"/><path d="M820.04-41.05L820-40l.04 1.03-15.53 4.38.48-12zm-13.42 3.8l10.15-2.88-9.9-3.64z"/><g><use xlink:href="#o" transform="matrix(1,0,0,1,461.7463160165148,-245.24017889224803) translate(0 19.555555555555557)"/><use xlink:href="#p" transform="matrix(1,0,0,1,461.7463160165148,-245.24017889224803) translate(39.38271604938272 19.555555555555557)"/><use xlink:href="#q" transform="matrix(1,0,0,1,461.7463160165148,-245.24017889224803) translate(196.70987654320993 19.555555555555557)"/><use xlink:href="#r" transform="matrix(1,0,0,1,461.7463160165148,-245.24017889224803) translate(223.87037037037044 19.555555555555557)"/><use xlink:href="#s" transform="matrix(1,0,0,1,461.7463160165148,-245.24017889224803) translate(0 48.88888888888889)"/><use xlink:href="#q" transform="matrix(1,0,0,1,461.7463160165148,-245.24017889224803) translate(59.753086419753096 48.88888888888889)"/><use xlink:href="#t" transform="matrix(1,0,0,1,461.7463160165148,-245.24017889224803) translate(86.9135802469136 48.88888888888889)"/><use xlink:href="#u" transform="matrix(1,0,0,1,461.7463160165148,-245.24017889224803) translate(181.83950617283955 48.88888888888889)"/></g><path d="M1119.7-177.2l-5.45 12.92-5.53 11.76-5.6 10.7-5.63 9.8-5.68 8.9-5.67 8.2-5.7 7.48-5.7 6.9-5.7 6.32-5.7 5.84-5.74 5.4-5.75 4.96-5.8 4.6-5.84 4.24-5.9 3.92-5.96 3.62-6.05 3.33-6.17 3.04-6.27 2.8-6.4 2.53-6.57 2.28-6.75 2.04-6.94 1.77-7.16 1.52-7.43 1.25-7.72.98-8.06.67-8.44.35L940-39v-2l4.33-.05 8.36-.34 7.97-.66 7.64-.97 7.36-1.24 7.1-1.5 6.86-1.77 6.66-2 6.48-2.26 6.33-2.5 6.18-2.77 6.08-3.02 5.98-3.27 5.9-3.58 5.83-3.87 5.77-4.2 5.73-4.54 5.7-4.92 5.68-5.33 5.65-5.8 5.65-6.26 5.64-6.82 5.63-7.43 5.63-8.1 5.6-8.87 5.6-9.7 5.57-10.64 5.5-11.7 5.4-12.85 2.23-6h2.13zm31.3-182.77l-.54 25.7-1.56 24.9-2.48 23.66-3.27 22.14-3.9 20.5-.1.44h-2.06l.2-.87 3.88-20.4 3.25-22.06 2.48-23.58 1.56-24.83.54-25.65z"/><path d="M1151-359.97l-1.22-.03h1.22zM954.44-35.92L940-40l14.07-5.2z"/><path d="M955.5-34.6l-15.54-4.37L940-40l-.04-1.05 15.06-5.55zm-12.27-5.53l10.15 2.87-.25-6.5z"/><g><use xlink:href="#o" transform="matrix(1,0,0,1,963.2306547125614,-242.6228797689207) translate(0 19.555555555555557)"/><use xlink:href="#p" transform="matrix(1,0,0,1,963.2306547125614,-242.6228797689207) translate(39.38271604938272 19.555555555555557)"/><use xlink:href="#q" transform="matrix(1,0,0,1,963.2306547125614,-242.6228797689207) translate(196.70987654320993 19.555555555555557)"/><use xlink:href="#r" transform="matrix(1,0,0,1,963.2306547125614,-242.6228797689207) translate(223.87037037037044 19.555555555555557)"/><use xlink:href="#s" transform="matrix(1,0,0,1,963.2306547125614,-242.6228797689207) translate(0 48.88888888888889)"/><use xlink:href="#q" transform="matrix(1,0,0,1,963.2306547125614,-242.6228797689207) translate(59.753086419753096 48.88888888888889)"/><use xlink:href="#t" transform="matrix(1,0,0,1,963.2306547125614,-242.6228797689207) translate(86.9135802469136 48.88888888888889)"/><use xlink:href="#u" transform="matrix(1,0,0,1,963.2306547125614,-242.6228797689207) translate(181.83950617283955 48.88888888888889)"/></g><path d="M400-1268h240v154H400z" stroke="#000" stroke-opacity="0" stroke-width="2" fill="#fff" fill-opacity="0"/><g><use xlink:href="#v" transform="matrix(1,0,0,1,405,-1263) translate(79.55555555555556 32)"/><use xlink:href="#w" transform="matrix(1,0,0,1,405,-1263) translate(-78.16666666666666 80)"/><use xlink:href="#x" transform="matrix(1,0,0,1,405,-1263) translate(5.2777777777777715 128)"/></g><defs><path d="M30-248c118-7 216 8 213 122C240-48 200 0 122 0H30v-248zM63-27c89 8 146-16 146-99s-60-101-146-95v194" id="y"/><path d="M100-194c62-1 85 37 85 99 1 63-27 99-86 99S16-35 15-95c0-66 28-99 85-99zM99-20c44 1 53-31 53-75 0-43-8-75-51-75s-53 32-53 75 10 74 51 75" id="z"/><path d="M206 0h-36l-40-164L89 0H53L-1-190h32L70-26l43-164h34l41 164 42-164h31" id="A"/><path d="M117-194c89-4 53 116 60 194h-32v-121c0-31-8-49-39-48C34-167 62-67 57 0H25l-1-190h30c1 10-1 24 2 32 11-22 29-35 61-36" id="B"/><path d="M24 0v-261h32V0H24" id="C"/><path d="M141-36C126-15 110 5 73 4 37 3 15-17 15-53c-1-64 63-63 125-63 3-35-9-54-41-54-24 1-41 7-42 31l-33-3c5-37 33-52 76-52 45 0 72 20 72 64v82c-1 20 7 32 28 27v20c-31 9-61-2-59-35zM48-53c0 20 12 33 32 33 41-3 63-29 60-74-43 2-92-5-92 41" id="D"/><path d="M85-194c31 0 48 13 60 33l-1-100h32l1 261h-30c-2-10 0-23-3-31C134-8 116 4 85 4 32 4 16-35 15-94c0-66 23-100 70-100zm9 24c-40 0-46 34-46 75 0 40 6 74 45 74 42 0 51-32 51-76 0-42-9-74-50-73" id="E"/><path d="M87 75C49 33 22-17 22-94c0-76 28-126 65-167h31c-38 41-64 92-64 168S80 34 118 75H87" id="F"/><path d="M33-261c38 41 65 92 65 168S71 34 33 75H2C39 34 66-17 66-93S39-220 2-261h31" id="G"/><g id="a"><use transform="matrix(0.06790123456790124,0,0,0.06790123456790124,0,0)" xlink:href="#y"/><use transform="matrix(0.06790123456790124,0,0,0.06790123456790124,17.58641975308642,0)" xlink:href="#z"/><use transform="matrix(0.06790123456790124,0,0,0.06790123456790124,31.16666666666667,0)" xlink:href="#A"/><use transform="matrix(0.06790123456790124,0,0,0.06790123456790124,48.75308641975309,0)" xlink:href="#B"/><use transform="matrix(0.06790123456790124,0,0,0.06790123456790124,62.333333333333336,0)" xlink:href="#C"/><use transform="matrix(0.06790123456790124,0,0,0.06790123456790124,67.69753086419753,0)" xlink:href="#z"/><use transform="matrix(0.06790123456790124,0,0,0.06790123456790124,81.27777777777779,0)" xlink:href="#D"/><use transform="matrix(0.06790123456790124,0,0,0.06790123456790124,94.85802469135804,0)" xlink:href="#E"/><use transform="matrix(0.06790123456790124,0,0,0.06790123456790124,108.4382716049383,0)" xlink:href="#F"/><use transform="matrix(0.06790123456790124,0,0,0.06790123456790124,116.51851851851855,0)" xlink:href="#G"/></g><path d="M18-150v-26h174v26H18zm0 90v-26h174v26H18" id="H"/><g id="b"><use transform="matrix(0.06790123456790124,0,0,0.06790123456790124,0,0)" xlink:href="#H"/><use transform="matrix(0.06790123456790124,0,0,0.06790123456790124,14.259259259259261,0)" xlink:href="#H"/></g><path d="M100-194c63 0 86 42 84 106H49c0 40 14 67 53 68 26 1 43-12 49-29l28 8c-11 28-37 45-77 45C44 4 14-33 15-96c1-61 26-98 85-98zm52 81c6-60-76-77-97-28-3 7-6 17-6 28h103" id="I"/><path d="M114-163C36-179 61-72 57 0H25l-1-190h30c1 12-1 29 2 39 6-27 23-49 58-41v29" id="J"/><g id="c"><use transform="matrix(0.06790123456790124,0,0,0.06790123456790124,0,0)" xlink:href="#I"/><use transform="matrix(0.06790123456790124,0,0,0.06790123456790124,13.580246913580249,0)" xlink:href="#J"/><use transform="matrix(0.06790123456790124,0,0,0.06790123456790124,21.660493827160497,0)" xlink:href="#J"/><use transform="matrix(0.06790123456790124,0,0,0.06790123456790124,29.740740740740748,0)" xlink:href="#z"/><use transform="matrix(0.06790123456790124,0,0,0.06790123456790124,43.320987654320994,0)" xlink:href="#J"/></g><path d="M234-2c-28 10-62 0-77-18C117 19 8 12 13-65c3-43 29-61 60-76-25-40-17-114 47-108 35 3 59 15 59 50 0 44-40 53-71 69 14 26 32 50 51 72 14-21 24-43 30-72l26 8c-9 33-21 57-38 82 13 13 33 22 57 15v23zM97-151c25-10 52-18 56-48-1-18-13-29-33-29-42 0-39 50-23 77zM42-66c-3 51 71 58 98 28-20-24-41-51-56-80-23 10-40 24-42 52" id="K"/><g id="d"><use transform="matrix(0.06790123456790124,0,0,0.06790123456790124,0,0)" xlink:href="#K"/><use transform="matrix(0.06790123456790124,0,0,0.06790123456790124,16.296296296296298,0)" xlink:href="#K"/></g><path d="M59-47c-2 24 18 29 38 22v24C64 9 27 4 27-40v-127H5v-23h24l9-43h21v43h35v23H59v120" id="L"/><path d="M179-190L93 31C79 59 56 82 12 73V49c39 6 53-20 64-50L1-190h34L92-34l54-156h33" id="M"/><path d="M30 0v-248h33v221h125V0H30" id="N"/><path d="M24-231v-30h32v30H24zM24 0v-190h32V0H24" id="O"/><path d="M210-169c-67 3-38 105-44 169h-31v-121c0-29-5-50-35-48C34-165 62-65 56 0H25l-1-190h30c1 10-1 24 2 32 10-44 99-50 107 0 11-21 27-35 58-36 85-2 47 119 55 194h-31v-121c0-29-5-49-35-48" id="P"/><path d="M233-177c-1 41-23 64-60 70L243 0h-38l-65-103H63V0H30v-248c88 3 205-21 203 71zM63-129c60-2 137 13 137-47 0-61-80-42-137-45v92" id="Q"/><path d="M96-169c-40 0-48 33-48 73s9 75 48 75c24 0 41-14 43-38l32 2c-6 37-31 61-74 61-59 0-76-41-82-99-10-93 101-131 147-64 4 7 5 14 7 22l-32 3c-4-21-16-35-41-35" id="R"/><path d="M106-169C34-169 62-67 57 0H25v-261h32l-1 103c12-21 28-36 61-36 89 0 53 116 60 194h-32v-121c2-32-8-49-39-48" id="S"/><g id="e"><use transform="matrix(0.06790123456790124,0,0,0.06790123456790124,0,0)" xlink:href="#J"/><use transform="matrix(0.06790123456790124,0,0,0.06790123456790124,8.080246913580249,0)" xlink:href="#I"/><use transform="matrix(0.06790123456790124,0,0,0.06790123456790124,21.660493827160497,0)" xlink:href="#L"/><use transform="matrix(0.06790123456790124,0,0,0.06790123456790124,28.45061728395062,0)" xlink:href="#J"/><use transform="matrix(0.06790123456790124,0,0,0.06790123456790124,36.53086419753087,0)" xlink:href="#M"/><use transform="matrix(0.06790123456790124,0,0,0.06790123456790124,48.75308641975309,0)" xlink:href="#N"/><use transform="matrix(0.06790123456790124,0,0,0.06790123456790124,62.333333333333336,0)" xlink:href="#O"/><use transform="matrix(0.06790123456790124,0,0,0.06790123456790124,67.69753086419753,0)" xlink:href="#P"/><use transform="matrix(0.06790123456790124,0,0,0.06790123456790124,88,0)" xlink:href="#O"/><use transform="matrix(0.06790123456790124,0,0,0.06790123456790124,93.36419753086419,0)" xlink:href="#L"/><use transform="matrix(0.06790123456790124,0,0,0.06790123456790124,100.15432098765433,0)" xlink:href="#Q"/><use transform="matrix(0.06790123456790124,0,0,0.06790123456790124,117.74074074074075,0)" xlink:href="#I"/><use transform="matrix(0.06790123456790124,0,0,0.06790123456790124,131.320987654321,0)" xlink:href="#D"/><use transform="matrix(0.06790123456790124,0,0,0.06790123456790124,144.90123456790127,0)" xlink:href="#R"/><use transform="matrix(0.06790123456790124,0,0,0.06790123456790124,157.12345679012347,0)" xlink:href="#S"/><use transform="matrix(0.06790123456790124,0,0,0.06790123456790124,170.70370370370372,0)" xlink:href="#I"/><use transform="matrix(0.06790123456790124,0,0,0.06790123456790124,184.28395061728398,0)" xlink:href="#E"/><use transform="matrix(0.06790123456790124,0,0,0.06790123456790124,197.86419753086423,0)" xlink:href="#F"/><use transform="matrix(0.06790123456790124,0,0,0.06790123456790124,205.94444444444449,0)" xlink:href="#G"/></g><path d="M30 0v-248h187v28H63v79h144v27H63v87h162V0H30" id="T"/><path d="M145-31C134-9 116 4 85 4 32 4 16-35 15-94c0-59 17-99 70-100 32-1 48 14 60 33 0-11-1-24 2-32h30l-1 268h-32zM93-21c41 0 51-33 51-76s-8-73-50-73c-40 0-46 35-46 75s5 74 45 74" id="U"/><path d="M84 4C-5 8 30-112 23-190h32v120c0 31 7 50 39 49 72-2 45-101 50-169h31l1 190h-30c-1-10 1-25-2-33-11 22-28 36-60 37" id="V"/><g id="f"><use transform="matrix(0.06790123456790124,0,0,0.06790123456790124,0,0)" xlink:href="#T"/><use transform="matrix(0.06790123456790124,0,0,0.06790123456790124,16.296296296296298,0)" xlink:href="#B"/><use transform="matrix(0.06790123456790124,0,0,0.06790123456790124,29.876543209876544,0)" xlink:href="#U"/><use transform="matrix(0.06790123456790124,0,0,0.06790123456790124,43.45679012345679,0)" xlink:href="#V"/><use transform="matrix(0.06790123456790124,0,0,0.06790123456790124,57.03703703703704,0)" xlink:href="#I"/><use transform="matrix(0.06790123456790124,0,0,0.06790123456790124,70.61728395061729,0)" xlink:href="#V"/><use transform="matrix(0.06790123456790124,0,0,0.06790123456790124,84.19753086419755,0)" xlink:href="#I"/></g><path d="M24-231v-30h32v30H24zM-9 49c24 4 33-6 33-30v-209h32V24c2 40-23 58-65 49V49" id="W"/><path d="M115-194c53 0 69 39 70 98 0 66-23 100-70 100C84 3 66-7 56-30L54 0H23l1-261h32v101c10-23 28-34 59-34zm-8 174c40 0 45-34 45-75 0-40-5-75-45-74-42 0-51 32-51 76 0 43 10 73 51 73" id="X"/><g id="g"><use transform="matrix(0.06790123456790124,0,0,0.06790123456790124,0,0)" xlink:href="#W"/><use transform="matrix(0.06790123456790124,0,0,0.06790123456790124,5.364197530864199,0)" xlink:href="#z"/><use transform="matrix(0.06790123456790124,0,0,0.06790123456790124,18.944444444444446,0)" xlink:href="#X"/></g><path d="M33 0v-248h34V0H33" id="Y"/><path d="M190 0L58-211 59 0H30v-248h39L202-35l-2-213h31V0h-41" id="Z"/><path d="M-5 72V49h209v23H-5" id="aa"/><path d="M30-248c87 1 191-15 191 75 0 78-77 80-158 76V0H30v-248zm33 125c57 0 124 11 124-50 0-59-68-47-124-48v98" id="ab"/><path d="M140-251c81 0 123 46 123 126C263-46 219 4 140 4 59 4 17-45 17-125s42-126 123-126zm0 227c63 0 89-41 89-101s-29-99-89-99c-61 0-89 39-89 99S79-25 140-24" id="ac"/><path d="M143 4C61 4 22-44 18-125c-5-107 100-154 193-111 17 8 29 25 37 43l-32 9c-13-25-37-40-76-40-61 0-88 39-88 99 0 61 29 100 91 101 35 0 62-11 79-27v-45h-74v-28h105v86C228-13 192 4 143 4" id="ad"/><path d="M185-189c-5-48-123-54-124 2 14 75 158 14 163 119 3 78-121 87-175 55-17-10-28-26-33-46l33-7c5 56 141 63 141-1 0-78-155-14-162-118-5-82 145-84 179-34 5 7 8 16 11 25" id="ae"/><g id="h"><use transform="matrix(0.07407407407407408,0,0,0.07407407407407408,0,0)" xlink:href="#Y"/><use transform="matrix(0.07407407407407408,0,0,0.07407407407407408,7.407407407407408,0)" xlink:href="#Z"/><use transform="matrix(0.07407407407407408,0,0,0.07407407407407408,26.592592592592595,0)" xlink:href="#aa"/><use transform="matrix(0.07407407407407408,0,0,0.07407407407407408,41.40740740740741,0)" xlink:href="#ab"/><use transform="matrix(0.07407407407407408,0,0,0.07407407407407408,59.18518518518519,0)" xlink:href="#Q"/><use transform="matrix(0.07407407407407408,0,0,0.07407407407407408,78.37037037037038,0)" xlink:href="#ac"/><use transform="matrix(0.07407407407407408,0,0,0.07407407407407408,99.11111111111113,0)" xlink:href="#ad"/><use transform="matrix(0.07407407407407408,0,0,0.07407407407407408,119.85185185185186,0)" xlink:href="#Q"/><use transform="matrix(0.07407407407407408,0,0,0.07407407407407408,139.03703703703707,0)" xlink:href="#T"/><use transform="matrix(0.07407407407407408,0,0,0.07407407407407408,156.81481481481484,0)" xlink:href="#ae"/><use transform="matrix(0.07407407407407408,0,0,0.07407407407407408,174.5925925925926,0)" xlink:href="#ae"/></g><path d="M232-93c-1 65-40 97-104 97C67 4 28-28 28-90v-158h33c8 89-33 224 67 224 102 0 64-133 71-224h33v155" id="af"/><path d="M212-179c-10-28-35-45-73-45-59 0-87 40-87 99 0 60 29 101 89 101 43 0 62-24 78-52l27 14C228-24 195 4 139 4 59 4 22-46 18-125c-6-104 99-153 187-111 19 9 31 26 39 46" id="ag"/><g id="i"><use transform="matrix(0.07407407407407408,0,0,0.07407407407407408,0,0)" xlink:href="#ae"/><use transform="matrix(0.07407407407407408,0,0,0.07407407407407408,17.77777777777778,0)" xlink:href="#af"/><use transform="matrix(0.07407407407407408,0,0,0.07407407407407408,36.96296296296296,0)" xlink:href="#ag"/><use transform="matrix(0.07407407407407408,0,0,0.07407407407407408,56.14814814814815,0)" xlink:href="#ag"/><use transform="matrix(0.07407407407407408,0,0,0.07407407407407408,75.33333333333334,0)" xlink:href="#T"/><use transform="matrix(0.07407407407407408,0,0,0.07407407407407408,93.1111111111111,0)" xlink:href="#ae"/><use transform="matrix(0.07407407407407408,0,0,0.07407407407407408,110.88888888888889,0)" xlink:href="#ae"/></g><path d="M63-70H37l-4-178h34zM33 0v-35h34V0H33" id="ah"/><g id="j"><use transform="matrix(0.06790123456790124,0,0,0.06790123456790124,0,0)" xlink:href="#ah"/><use transform="matrix(0.06790123456790124,0,0,0.06790123456790124,6.790123456790124,0)" xlink:href="#J"/><use transform="matrix(0.06790123456790124,0,0,0.06790123456790124,14.870370370370374,0)" xlink:href="#I"/><use transform="matrix(0.06790123456790124,0,0,0.06790123456790124,28.45061728395062,0)" xlink:href="#L"/><use transform="matrix(0.06790123456790124,0,0,0.06790123456790124,35.24074074074075,0)" xlink:href="#J"/><use transform="matrix(0.06790123456790124,0,0,0.06790123456790124,43.320987654320994,0)" xlink:href="#M"/><use transform="matrix(0.06790123456790124,0,0,0.06790123456790124,55.543209876543216,0)" xlink:href="#N"/><use transform="matrix(0.06790123456790124,0,0,0.06790123456790124,69.12345679012347,0)" xlink:href="#O"/><use transform="matrix(0.06790123456790124,0,0,0.06790123456790124,74.48765432098766,0)" xlink:href="#P"/><use transform="matrix(0.06790123456790124,0,0,0.06790123456790124,94.79012345679014,0)" xlink:href="#O"/><use transform="matrix(0.06790123456790124,0,0,0.06790123456790124,100.15432098765434,0)" xlink:href="#L"/><use transform="matrix(0.06790123456790124,0,0,0.06790123456790124,106.94444444444447,0)" xlink:href="#Q"/><use transform="matrix(0.06790123456790124,0,0,0.06790123456790124,124.53086419753089,0)" xlink:href="#I"/><use transform="matrix(0.06790123456790124,0,0,0.06790123456790124,138.11111111111114,0)" xlink:href="#D"/><use transform="matrix(0.06790123456790124,0,0,0.06790123456790124,151.69135802469143,0)" xlink:href="#R"/><use transform="matrix(0.06790123456790124,0,0,0.06790123456790124,163.91358024691363,0)" xlink:href="#S"/><use transform="matrix(0.06790123456790124,0,0,0.06790123456790124,177.49382716049388,0)" xlink:href="#I"/><use transform="matrix(0.06790123456790124,0,0,0.06790123456790124,191.07407407407413,0)" xlink:href="#E"/><use transform="matrix(0.06790123456790124,0,0,0.06790123456790124,204.6543209876544,0)" xlink:href="#F"/><use transform="matrix(0.06790123456790124,0,0,0.06790123456790124,212.73456790123464,0)" xlink:href="#G"/></g><path d="M63-220v92h138v28H63V0H30v-248h175v28H63" id="ai"/><path d="M205 0l-28-72H64L36 0H1l101-248h38L239 0h-34zm-38-99l-47-123c-12 45-31 82-46 123h93" id="aj"/><g id="k"><use transform="matrix(0.07407407407407408,0,0,0.07407407407407408,0,0)" xlink:href="#ai"/><use transform="matrix(0.07407407407407408,0,0,0.07407407407407408,14.740740740740744,0)" xlink:href="#aj"/><use transform="matrix(0.07407407407407408,0,0,0.07407407407407408,32.51851851851852,0)" xlink:href="#Y"/><use transform="matrix(0.07407407407407408,0,0,0.07407407407407408,39.925925925925924,0)" xlink:href="#N"/><use transform="matrix(0.07407407407407408,0,0,0.07407407407407408,54.74074074074074,0)" xlink:href="#T"/><use transform="matrix(0.07407407407407408,0,0,0.07407407407407408,72.51851851851852,0)" xlink:href="#y"/></g><path d="M135-143c-3-34-86-38-87 0 15 53 115 12 119 90S17 21 10-45l28-5c4 36 97 45 98 0-10-56-113-15-118-90-4-57 82-63 122-42 12 7 21 19 24 35" id="ak"/><g id="l"><use transform="matrix(0.06790123456790124,0,0,0.06790123456790124,0,0)" xlink:href="#ak"/><use transform="matrix(0.06790123456790124,0,0,0.06790123456790124,12.222222222222223,0)" xlink:href="#V"/><use transform="matrix(0.06790123456790124,0,0,0.06790123456790124,25.802469135802472,0)" xlink:href="#R"/><use transform="matrix(0.06790123456790124,0,0,0.06790123456790124,38.0246913580247,0)" xlink:href="#R"/><use transform="matrix(0.06790123456790124,0,0,0.06790123456790124,50.24691358024692,0)" xlink:href="#I"/><use transform="matrix(0.06790123456790124,0,0,0.06790123456790124,63.827160493827165,0)" xlink:href="#ak"/><use transform="matrix(0.06790123456790124,0,0,0.06790123456790124,76.0493827160494,0)" xlink:href="#ak"/></g><g id="m"><use transform="matrix(0.07407407407407408,0,0,0.07407407407407408,0,0)" xlink:href="#ab"/><use transform="matrix(0.07407407407407408,0,0,0.07407407407407408,17.77777777777778,0)" xlink:href="#T"/><use transform="matrix(0.07407407407407408,0,0,0.07407407407407408,35.55555555555556,0)" xlink:href="#Z"/><use transform="matrix(0.07407407407407408,0,0,0.07407407407407408,54.74074074074075,0)" xlink:href="#y"/><use transform="matrix(0.07407407407407408,0,0,0.07407407407407408,73.92592592592594,0)" xlink:href="#Y"/><use transform="matrix(0.07407407407407408,0,0,0.07407407407407408,81.33333333333334,0)" xlink:href="#Z"/><use transform="matrix(0.07407407407407408,0,0,0.07407407407407408,100.51851851851853,0)" xlink:href="#ad"/></g><path d="M115-194c55 1 70 41 70 98S169 2 115 4C84 4 66-9 55-30l1 105H24l-1-265h31l2 30c10-21 28-34 59-34zm-8 174c40 0 45-34 45-75s-6-73-45-74c-42 0-51 32-51 76 0 43 10 73 51 73" id="al"/><g id="n"><use transform="matrix(0.06790123456790124,0,0,0.06790123456790124,0,0)" xlink:href="#al"/><use transform="matrix(0.06790123456790124,0,0,0.06790123456790124,13.580246913580249,0)" xlink:href="#J"/><use transform="matrix(0.06790123456790124,0,0,0.06790123456790124,21.660493827160497,0)" xlink:href="#z"/><use transform="matrix(0.06790123456790124,0,0,0.06790123456790124,35.24074074074075,0)" xlink:href="#R"/><use transform="matrix(0.06790123456790124,0,0,0.06790123456790124,47.46296296296297,0)" xlink:href="#I"/><use transform="matrix(0.06790123456790124,0,0,0.06790123456790124,61.043209876543216,0)" xlink:href="#ak"/><use transform="matrix(0.06790123456790124,0,0,0.06790123456790124,73.26543209876544,0)" xlink:href="#ak"/></g><g id="o"><use transform="matrix(0.06790123456790124,0,0,0.06790123456790124,0,0)" xlink:href="#ak"/><use transform="matrix(0.06790123456790124,0,0,0.06790123456790124,12.222222222222223,0)" xlink:href="#I"/><use transform="matrix(0.06790123456790124,0,0,0.06790123456790124,25.802469135802472,0)" xlink:href="#L"/></g><path d="M143 0L79-87 56-68V0H24v-261h32v163l83-92h37l-77 82L181 0h-38" id="am"/><g id="p"><use transform="matrix(0.06790123456790124,0,0,0.06790123456790124,0,0)" xlink:href="#ag"/><use transform="matrix(0.06790123456790124,0,0,0.06790123456790124,17.58641975308642,0)" xlink:href="#D"/><use transform="matrix(0.06790123456790124,0,0,0.06790123456790124,31.16666666666667,0)" xlink:href="#C"/><use transform="matrix(0.06790123456790124,0,0,0.06790123456790124,36.53086419753087,0)" xlink:href="#C"/><use transform="matrix(0.06790123456790124,0,0,0.06790123456790124,41.89506172839506,0)" xlink:href="#X"/><use transform="matrix(0.06790123456790124,0,0,0.06790123456790124,55.47530864197531,0)" xlink:href="#D"/><use transform="matrix(0.06790123456790124,0,0,0.06790123456790124,69.05555555555556,0)" xlink:href="#R"/><use transform="matrix(0.06790123456790124,0,0,0.06790123456790124,81.27777777777779,0)" xlink:href="#am"/><use transform="matrix(0.06790123456790124,0,0,0.06790123456790124,93.50000000000001,0)" xlink:href="#ae"/><use transform="matrix(0.06790123456790124,0,0,0.06790123456790124,109.79629629629629,0)" xlink:href="#L"/><use transform="matrix(0.06790123456790124,0,0,0.06790123456790124,116.58641975308643,0)" xlink:href="#D"/><use transform="matrix(0.06790123456790124,0,0,0.06790123456790124,130.16666666666669,0)" xlink:href="#L"/><use transform="matrix(0.06790123456790124,0,0,0.06790123456790124,136.9567901234568,0)" xlink:href="#I"/></g><g id="q"><use transform="matrix(0.06790123456790124,0,0,0.06790123456790124,0,0)" xlink:href="#L"/><use transform="matrix(0.06790123456790124,0,0,0.06790123456790124,6.790123456790124,0)" xlink:href="#z"/></g><g id="r"><use transform="matrix(0.06790123456790124,0,0,0.06790123456790124,0,0)" xlink:href="#ab"/><use transform="matrix(0.06790123456790124,0,0,0.06790123456790124,16.296296296296298,0)" xlink:href="#T"/><use transform="matrix(0.06790123456790124,0,0,0.06790123456790124,32.592592592592595,0)" xlink:href="#Z"/><use transform="matrix(0.06790123456790124,0,0,0.06790123456790124,50.17901234567901,0)" xlink:href="#y"/><use transform="matrix(0.06790123456790124,0,0,0.06790123456790124,67.76543209876543,0)" xlink:href="#Y"/><use transform="matrix(0.06790123456790124,0,0,0.06790123456790124,74.55555555555556,0)" xlink:href="#Z"/><use transform="matrix(0.06790123456790124,0,0,0.06790123456790124,92.14197530864197,0)" xlink:href="#ad"/></g><g id="s"><use transform="matrix(0.06790123456790124,0,0,0.06790123456790124,0,0)" xlink:href="#al"/><use transform="matrix(0.06790123456790124,0,0,0.06790123456790124,13.580246913580249,0)" xlink:href="#V"/><use transform="matrix(0.06790123456790124,0,0,0.06790123456790124,27.160493827160497,0)" xlink:href="#ak"/><use transform="matrix(0.06790123456790124,0,0,0.06790123456790124,39.38271604938272,0)" xlink:href="#S"/></g><g id="t"><use transform="matrix(0.06790123456790124,0,0,0.06790123456790124,0,0)" xlink:href="#R"/><use transform="matrix(0.06790123456790124,0,0,0.06790123456790124,12.222222222222223,0)" xlink:href="#D"/><use transform="matrix(0.06790123456790124,0,0,0.06790123456790124,25.802469135802472,0)" xlink:href="#C"/><use transform="matrix(0.06790123456790124,0,0,0.06790123456790124,31.16666666666667,0)" xlink:href="#C"/><use transform="matrix(0.06790123456790124,0,0,0.06790123456790124,36.53086419753087,0)" xlink:href="#X"/><use transform="matrix(0.06790123456790124,0,0,0.06790123456790124,50.111111111111114,0)" xlink:href="#D"/><use transform="matrix(0.06790123456790124,0,0,0.06790123456790124,63.69135802469136,0)" xlink:href="#R"/><use transform="matrix(0.06790123456790124,0,0,0.06790123456790124,75.91358024691358,0)" xlink:href="#am"/></g><g id="u"><use transform="matrix(0.06790123456790124,0,0,0.06790123456790124,0,0)" xlink:href="#U"/><use transform="matrix(0.06790123456790124,0,0,0.06790123456790124,13.580246913580249,0)" xlink:href="#V"/><use transform="matrix(0.06790123456790124,0,0,0.06790123456790124,27.160493827160497,0)" xlink:href="#I"/><use transform="matrix(0.06790123456790124,0,0,0.06790123456790124,40.74074074074075,0)" xlink:href="#V"/><use transform="matrix(0.06790123456790124,0,0,0.06790123456790124,54.320987654320994,0)" xlink:href="#I"/></g><path d="M176-78C186 10 51 31 16-35c-5-9-9-19-11-32l52-8c4 21 12 37 35 38 23 0 32-16 32-40v-130H75v-41h101v170" id="an"/><path d="M110-194c64 0 96 36 96 99 0 64-35 99-97 99-61 0-95-36-95-99 0-62 34-99 96-99zm-1 164c35 0 45-28 45-65 0-40-10-65-43-65-34 0-45 26-45 65 0 36 10 65 43 65" id="ao"/><path d="M135-194c52 0 70 43 70 98 0 56-19 99-73 100-30 1-46-15-58-35L72 0H24l1-261h50v104c11-23 29-37 60-37zM114-30c31 0 40-27 40-66 0-37-7-63-39-63s-41 28-41 65c0 36 8 64 40 64" id="ap"/><g id="v"><use transform="matrix(0.1111111111111111,0,0,0.1111111111111111,0,0)" xlink:href="#an"/><use transform="matrix(0.1111111111111111,0,0,0.1111111111111111,22.22222222222222,0)" xlink:href="#ao"/><use transform="matrix(0.1111111111111111,0,0,0.1111111111111111,46.55555555555556,0)" xlink:href="#ap"/></g><path d="M24-248c120-7 223 5 221 122C244-46 201 0 124 0H24v-248zM76-40c74 7 117-18 117-86 0-67-45-88-117-82v168" id="aq"/><path d="M140-251c80 0 125 45 125 126S219 4 139 4C58 4 15-44 15-125s44-126 125-126zm-1 214c52 0 73-35 73-88 0-50-21-86-72-86-52 0-73 35-73 86s22 88 72 88" id="ar"/><path d="M275 0h-61l-44-196L126 0H64L0-248h53L97-49l45-199h58l43 199 44-199h52" id="as"/><path d="M175 0L67-191c6 58 2 128 3 191H24v-248h59L193-55c-6-58-2-129-3-193h46V0h-61" id="at"/><path d="M24 0v-248h52v208h133V0H24" id="au"/><path d="M199 0l-22-63H83L61 0H9l90-248h61L250 0h-51zm-33-102l-36-108c-10 38-24 72-36 108h72" id="av"/><path d="M-4 44V30h207v14H-4" id="aw"/><path d="M169-182c-1-43-94-46-97-3 18 66 151 10 154 114 3 95-165 93-204 36-6-8-10-19-12-30l50-8c3 46 112 56 116 5-17-69-150-10-154-114-4-87 153-88 188-35 5 8 8 18 10 28" id="ax"/><path d="M136-208V0H84v-208H4v-40h212v40h-80" id="ay"/><path d="M24 0v-248h195v40H76v63h132v40H76v65h150V0H24" id="az"/><g id="w"><use transform="matrix(0.1111111111111111,0,0,0.1111111111111111,0,0)" xlink:href="#aq"/><use transform="matrix(0.1111111111111111,0,0,0.1111111111111111,28.777777777777775,0)" xlink:href="#ar"/><use transform="matrix(0.1111111111111111,0,0,0.1111111111111111,59.888888888888886,0)" xlink:href="#as"/><use transform="matrix(0.1111111111111111,0,0,0.1111111111111111,97.55555555555554,0)" xlink:href="#at"/><use transform="matrix(0.1111111111111111,0,0,0.1111111111111111,126.33333333333333,0)" xlink:href="#au"/><use transform="matrix(0.1111111111111111,0,0,0.1111111111111111,150.66666666666666,0)" xlink:href="#ar"/><use transform="matrix(0.1111111111111111,0,0,0.1111111111111111,181.77777777777777,0)" xlink:href="#av"/><use transform="matrix(0.1111111111111111,0,0,0.1111111111111111,210.55555555555554,0)" xlink:href="#aq"/><use transform="matrix(0.1111111111111111,0,0,0.1111111111111111,239.33333333333331,0)" xlink:href="#aw"/><use transform="matrix(0.1111111111111111,0,0,0.1111111111111111,261.55555555555554,0)" xlink:href="#ax"/><use transform="matrix(0.1111111111111111,0,0,0.1111111111111111,288.22222222222223,0)" xlink:href="#ay"/><use transform="matrix(0.1111111111111111,0,0,0.1111111111111111,309.55555555555554,0)" xlink:href="#av"/><use transform="matrix(0.1111111111111111,0,0,0.1111111111111111,335.3333333333333,0)" xlink:href="#ay"/><use transform="matrix(0.1111111111111111,0,0,0.1111111111111111,359.66666666666663,0)" xlink:href="#az"/></g><path d="M67-93c0 74 22 123 53 168H70C40 30 18-18 18-93s22-123 52-168h50c-32 44-53 94-53 168" id="aA"/><path d="M135-194c53 0 70 44 70 98 0 56-19 98-73 100-31 1-45-17-59-34 3 33 2 69 2 105H25l-1-265h48c2 10 0 23 3 31 11-24 29-35 60-35zM114-30c33 0 39-31 40-66 0-38-9-64-40-64-56 0-55 130 0 130" id="aB"/><path d="M135-150c-39-12-60 13-60 57V0H25l-1-190h47c2 13-1 29 3 40 6-28 27-53 61-41v41" id="aC"/><path d="M190-63c-7 42-38 67-86 67-59 0-84-38-90-98-12-110 154-137 174-36l-49 2c-2-19-15-32-35-32-30 0-35 28-38 64-6 74 65 87 74 30" id="aD"/><path d="M185-48c-13 30-37 53-82 52C43 2 14-33 14-96s30-98 90-98c62 0 83 45 84 108H66c0 31 8 55 39 56 18 0 30-7 34-22zm-45-69c5-46-57-63-70-21-2 6-4 13-4 21h74" id="aE"/><path d="M137-138c1-29-70-34-71-4 15 46 118 7 119 86 1 83-164 76-172 9l43-7c4 19 20 25 44 25 33 8 57-30 24-41C81-84 22-81 20-136c-2-80 154-74 161-7" id="aF"/><path d="M102-93c0 74-22 123-52 168H0C30 29 54-18 53-93c0-74-22-123-53-168h50c30 45 52 94 52 168" id="aG"/><g id="x"><use transform="matrix(0.1111111111111111,0,0,0.1111111111111111,0,0)" xlink:href="#aA"/><use transform="matrix(0.1111111111111111,0,0,0.1111111111111111,13.222222222222221,0)" xlink:href="#aB"/><use transform="matrix(0.1111111111111111,0,0,0.1111111111111111,37.55555555555556,0)" xlink:href="#aC"/><use transform="matrix(0.1111111111111111,0,0,0.1111111111111111,53.111111111111114,0)" xlink:href="#ao"/><use transform="matrix(0.1111111111111111,0,0,0.1111111111111111,77.44444444444444,0)" xlink:href="#aD"/><use transform="matrix(0.1111111111111111,0,0,0.1111111111111111,99.66666666666666,0)" xlink:href="#aE"/><use transform="matrix(0.1111111111111111,0,0,0.1111111111111111,121.88888888888889,0)" xlink:href="#aF"/><use transform="matrix(0.1111111111111111,0,0,0.1111111111111111,144.11111111111111,0)" xlink:href="#aF"/><use transform="matrix(0.1111111111111111,0,0,0.1111111111111111,166.33333333333334,0)" xlink:href="#ao"/><use transform="matrix(0.1111111111111111,0,0,0.1111111111111111,190.66666666666669,0)" xlink:href="#aC"/><use transform="matrix(0.1111111111111111,0,0,0.1111111111111111,206.22222222222223,0)" xlink:href="#aG"/></g></defs></g></svg>